<svg width="62" height="12" viewBox="0 0 62 12" fill="none" xmlns="http://www.w3.org/2000/svg">
<path d="M8.66213 7.94971H8.00131L4.69975 0.563293L0 11.2283H1.69926L2.46214 9.40403L9.35102 9.45506L8.66213 7.94971ZM3.1 7.92419L4.68699 4.3037L6.27143 7.92419H3.1Z" fill="white"/>
<path d="M7.15625 9.96497L7.65378 11.2279H9.42958L9.04431 10.3477L7.15625 9.96497Z" fill="white"/>
<path d="M24.4684 0.55011C21.5011 0.55011 19.0977 2.96632 19.0977 5.9464C19.0977 8.92648 21.4884 11.2151 24.4557 11.2151C27.423 11.2151 29.8392 8.92648 29.8392 5.9464C29.8392 2.96632 27.4358 0.55011 24.4684 0.55011ZM24.4557 9.73529C22.4553 9.73529 20.8326 8.01562 20.8326 5.89537C20.8326 3.77513 22.4553 2.05546 24.4557 2.05546C26.456 2.05546 28.0787 3.77513 28.0787 5.89537C28.0787 8.01562 26.456 9.73529 24.4557 9.73529Z" fill="white"/>
<path d="M17.8678 8.17126C17.1916 9.12039 16.1047 9.76335 14.8775 9.73529C12.5659 9.68426 11.1626 8.01052 11.1626 5.88262C11.1626 3.75472 12.6935 1.97892 14.8877 2.08097C16.0282 2.13455 16.9875 2.64484 17.6688 3.48426L18.5822 2.09118C17.6126 1.13949 16.2884 0.55011 14.8239 0.55011C11.8566 0.55011 9.45312 2.8464 9.45312 5.9464C9.45312 8.92648 11.6729 11.2151 14.8622 11.2151C16.4339 11.2151 17.8091 10.664 18.7914 9.58475L17.8678 8.17126Z" fill="white"/>
<path d="M38.2439 4.44609C38.2439 1.41754 35.3608 0.562805 33.9269 0.562805C32.493 0.562805 30.9238 0.562805 30.9238 0.562805V11.2278H32.6103V8.69424C32.6103 8.69424 34.1488 8.71465 34.404 8.63811L36.2665 11.2278H38.2414L36.0905 8.20436C36.0905 8.20436 38.2439 7.47465 38.2439 4.44609ZM34.0391 7.24502H32.6358V2.0554C32.6409 2.0554 32.7047 2.0554 33.5901 2.0554C34.5851 2.0554 36.4732 2.25951 36.4732 4.75992C36.4732 7.26033 34.0391 7.24502 34.0391 7.24502Z" fill="white"/>
<path d="M39.543 0.562805V11.2278H41.1427V4.27515L48.0699 11.2278V0.562805H46.5033V7.51547L39.543 0.562805Z" fill="white"/>
<path d="M49.3398 0.562805H62.0001L58.3388 8.45951H49.3398V0.562805Z" fill="#A20000"/>
<path d="M52.0342 11.2278V8.45953H49.3398L52.0342 11.2278Z" fill="#610000"/>
<path d="M50.6836 1.9024H54.3577L54.7659 2.97401H53.2605V7.10734H52.1124V2.99952H50.6861L50.6836 1.9024Z" fill="white"/>
<path d="M54.9219 1.9024H56.195L57.3942 4.40281L58.5857 1.9024H59.7926L57.4044 7.10734L54.9219 1.9024Z" fill="white"/>
</svg>
