<svg width="45" height="13" viewBox="0 0 45 13" fill="none" xmlns="http://www.w3.org/2000/svg">
<g id="logo">
<path id="Fill 1" fill-rule="evenodd" clip-rule="evenodd" d="M15.5737 1.3357L14.882 0.936322L14.1909 0.537257C14.1358 0.505585 14.0782 0.491333 14.0218 0.491333C13.8448 0.491333 13.6816 0.632906 13.6816 0.830855V1.62962V2.42807C13.6816 2.68904 13.9651 2.85215 14.1909 2.72166L14.882 2.32228L15.5737 1.92322C15.8005 1.79241 15.8005 1.46651 15.5737 1.3357Z" fill="#00B3CD"/>
<path id="Fill 3" fill-rule="evenodd" clip-rule="evenodd" d="M33.3851 6.12485C33.3851 4.10292 34.1803 2.32613 35.3829 1.29236C33.4915 1.94955 32.0957 4.19635 32.0957 6.87547C32.0957 10.0693 34.0771 12.6584 36.5209 12.6584C37.7127 12.6584 39.4505 12.0424 40.9198 11.041C39.803 11.5905 38.666 11.9084 37.8109 11.9084C35.3668 11.9084 33.3851 9.31895 33.3851 6.12485Z" fill="#E40C7D"/>
<g id="Group 7">
<mask id="mask0" mask-type="alpha" maskUnits="userSpaceOnUse" x="35" y="0" width="10" height="12">
<path id="Clip 6" fill-rule="evenodd" clip-rule="evenodd" d="M35.3809 0.341553H44.9998V11.0409H35.3809V0.341553Z" fill="white"/>
</mask>
<g mask="url(#mask0)">
<path id="Fill 5" fill-rule="evenodd" clip-rule="evenodd" d="M44.9999 6.12483C44.9999 2.93104 40.2529 0.341553 37.8088 0.341553C36.9116 0.341553 36.0783 0.69311 35.3809 1.29234C35.7445 1.16597 36.1251 1.09186 36.5191 1.09186C38.9629 1.09186 43.7106 3.68135 43.7106 6.87546C43.7106 8.51226 42.4627 9.98911 40.918 11.0409C42.9935 10.0214 44.9999 8.20124 44.9999 6.12483Z" fill="#00B3CD"/>
</g>
</g>
<path id="Fill 8" fill-rule="evenodd" clip-rule="evenodd" d="M43.7117 6.87551C43.7117 3.68141 38.9644 1.09192 36.5203 1.09192C36.1263 1.09192 35.7459 1.16635 35.382 1.2924C34.1794 2.32617 33.3848 4.10296 33.3848 6.12489C33.3848 9.319 35.3658 11.9085 37.81 11.9085C38.6651 11.9085 39.8024 11.5905 40.9195 11.041C42.4641 9.98917 43.7117 8.51232 43.7117 6.87551Z" fill="#242958"/>
<path id="Fill 10" fill-rule="evenodd" clip-rule="evenodd" d="M41.3541 5.78117L40.4223 8.35482C40.3459 8.55435 40.1676 8.67914 39.9649 8.67914C39.7648 8.67914 39.588 8.5572 39.513 8.36749L38.5451 6.03138H37.2275V7.12817C37.2275 7.56524 37.5268 7.9206 37.8942 7.9206H37.9471C38.1565 7.9206 38.3262 8.09068 38.3262 8.29971C38.3262 8.50938 38.1565 8.67914 37.9471 8.67914H37.8942C37.1088 8.67914 36.4687 7.98331 36.4687 7.12817V6.03138H35.6978C35.4881 6.03138 35.3184 5.86161 35.3184 5.65226C35.3184 5.4426 35.4881 5.27315 35.6978 5.27315H36.4687V4.54977C36.4687 4.34042 36.6388 4.17065 36.8481 4.17065C37.0581 4.17065 37.2275 4.34042 37.2275 4.54977V5.27315H38.6806C38.9131 5.27315 39.1174 5.41662 39.2039 5.63991L39.9481 7.43634L40.6408 5.52304C40.7124 5.32604 40.9293 5.22438 41.1263 5.29564C41.3237 5.36658 41.4256 5.58449 41.3541 5.78117Z" fill="#FEFEFE"/>
<path id="Fill 12" fill-rule="evenodd" clip-rule="evenodd" d="M11.2192 0.505249C10.5262 0.505249 10.1797 0.821334 10.1797 1.45319V11.0168C10.1797 11.649 10.5262 11.9651 11.2192 11.9651C11.8998 11.9651 12.2409 11.649 12.2409 11.0168V1.45319C12.2409 0.821334 11.8998 0.505249 11.2192 0.505249Z" fill="#00B3CD"/>
<path id="Fill 14" fill-rule="evenodd" clip-rule="evenodd" d="M14.7234 3.71704C14.0304 3.71704 13.6836 4.03344 13.6836 4.6653V11.0171C13.6836 11.6489 14.0304 11.965 14.7234 11.965C15.404 11.965 15.7454 11.6489 15.7454 11.0171V4.6653C15.7454 4.03344 15.404 3.71704 14.7234 3.71704Z" fill="#00B3CD"/>
<g id="Group 18">
<mask id="mask1" mask-type="alpha" maskUnits="userSpaceOnUse" x="0" y="0" width="10" height="12">
<path id="Clip 17" fill-rule="evenodd" clip-rule="evenodd" d="M0.8125 0.491577H9.05994V11.966H0.8125V0.491577Z" fill="white"/>
</mask>
<g mask="url(#mask1)">
<path id="Fill 16" fill-rule="evenodd" clip-rule="evenodd" d="M7.00712 7.84348C7.0049 9.20632 6.107 10.3104 4.93799 10.3104C3.7674 10.3104 2.86887 9.20442 2.86887 7.83936V7.83524C2.87046 6.4724 3.76867 5.36896 4.93799 5.36896C6.10795 5.36896 7.00712 6.47494 7.00712 7.83936V7.84348ZM4.93807 3.71989C4.12442 3.71989 3.43208 3.88426 2.8585 4.17248V1.43223C2.8585 0.804812 2.52056 0.491577 1.84437 0.491577C1.15646 0.491577 0.8125 0.804812 0.8125 1.43223V7.62408L0.820101 7.61964C0.816934 7.6928 0.81535 7.76628 0.81535 7.84134V7.84356C0.81535 10.1198 2.19909 11.966 4.93807 11.966C7.67642 11.966 9.06017 10.1198 9.06017 7.84356C9.06017 5.56604 7.67642 3.71989 4.93807 3.71989Z" fill="#00B3CD"/>
</g>
</g>
<path id="Fill 19" fill-rule="evenodd" clip-rule="evenodd" d="M29.1452 6.15291C29.085 4.79736 27.6604 3.71228 25.9087 3.71228C24.7561 3.71228 23.7442 4.18356 23.17 4.89206C22.5964 4.18356 21.5842 3.71228 20.4313 3.71228C18.6485 3.71228 17.203 4.83726 17.1926 6.22671C17.1894 6.23241 17.1875 10.9927 17.1875 10.9927C17.1875 11.641 17.5308 11.965 18.2181 11.965C18.5244 11.965 18.7727 11.8776 18.963 11.7047C19.1527 11.5314 19.2478 11.3053 19.2478 11.0256C19.2478 11.0256 19.2455 7.08913 19.2455 7.06316C19.2455 6.26471 19.8932 5.61703 20.6917 5.61703C21.4904 5.61703 22.1384 6.26471 22.1384 7.06316C22.1384 7.08026 22.1356 11.0256 22.1356 11.0256C22.1356 11.6049 22.4406 11.9147 23.0484 11.9587V11.9596C23.0775 11.9612 23.1029 11.965 23.1336 11.965C23.145 11.965 23.1564 11.9641 23.1681 11.9641C23.1795 11.9641 23.1903 11.965 23.2026 11.965C23.233 11.965 23.2587 11.9612 23.2878 11.9596V11.9587C23.8956 11.9147 24.2003 11.6049 24.2003 11.0256V7.06316C24.2003 6.26471 24.848 5.61703 25.6467 5.61703C26.4461 5.61703 27.0932 6.26471 27.0932 7.06316C27.0932 7.10339 27.0884 11.0256 27.0884 11.0256C27.0884 11.3053 27.1828 11.5314 27.3732 11.7047C27.5632 11.8776 27.8115 11.965 28.1181 11.965C28.8051 11.965 29.1487 11.641 29.1487 10.9927V6.23938C29.1487 6.21119 29.1474 6.18237 29.1452 6.15291Z" fill="#00B3CD"/>
</g>
</svg>
