<svg width="52" height="29" viewBox="0 0 52 29" fill="none" xmlns="http://www.w3.org/2000/svg">
<g id="logo">
<g id="Group 3">
<mask id="mask0" mask-type="alpha" maskUnits="userSpaceOnUse" x="0" y="10" width="52" height="19">
<path id="Clip 2" fill-rule="evenodd" clip-rule="evenodd" d="M0 10.5397H52V28.384H0V10.5397Z" fill="white"/>
</mask>
<g mask="url(#mask0)">
<path id="Fill 1" fill-rule="evenodd" clip-rule="evenodd" d="M51.7411 18.6091H48.5511C48.4876 17.5246 48.3564 16.4678 48.1507 15.3797C48.1298 15.2671 48.0317 15.1854 47.9176 15.1854H47.1824C47.1183 15.1854 47.0578 15.214 47.0162 15.2641C46.9747 15.3151 46.9581 15.3802 46.9706 15.4438C47.1794 16.4967 47.312 17.5332 47.377 18.6102H44.3082C44.1651 18.6102 44.049 18.7257 44.049 18.8685V19.5318C44.049 19.6751 44.1651 19.7917 44.3082 19.7917H47.421C47.4231 19.9555 47.4246 20.1022 47.4246 20.2398C47.4246 21.1961 47.3835 21.9837 47.287 22.8729C47.2795 22.9415 47.302 23.0101 47.3485 23.0607C47.3936 23.1112 47.4586 23.1402 47.5262 23.1402H48.2083C48.3415 23.1402 48.4516 23.0401 48.465 22.9075C48.5581 22.0122 48.5981 21.2146 48.5981 20.2398C48.5981 20.1027 48.5966 19.9555 48.5946 19.7917H51.7411C51.8838 19.7917 52.0003 19.6751 52.0003 19.5318V18.8685C52.0003 18.7253 51.8838 18.6091 51.7411 18.6091ZM41.7916 18.7313C41.7916 18.7313 41.7229 18.1957 41.1993 18.7856C40.7493 19.2835 39.9373 20.2164 39.2837 21.4838C39.9694 21.4068 40.6311 21.0344 40.8309 20.8448C41.1562 20.556 41.9136 19.7727 41.7916 18.7313ZM42.1522 20.8646C41.6885 21.6746 40.3785 23.3702 38.6379 22.9699C38.0631 24.3645 37.5802 25.7754 37.3042 27.8861C37.3042 27.8861 37.2435 28.2963 36.9026 28.154C36.5651 28.0353 36.0087 27.4737 35.8961 26.6969C35.7752 25.6763 36.2295 23.9505 37.1577 21.9718C36.887 21.5315 36.7024 20.9023 36.8603 20.0064C36.8603 20.0064 37.0937 18.3429 38.7637 16.8435C38.7637 16.8435 38.9639 16.6703 39.0799 16.7237C39.2076 16.7774 39.1485 17.3185 39.0471 17.5817C38.9418 17.8435 38.1981 19.1316 38.1981 19.1316C38.1981 19.1316 37.7344 20.0015 37.8648 20.6875C38.7408 19.3403 40.732 16.6234 41.9661 17.4803C42.3805 17.777 42.5717 18.4224 42.5718 19.1182C42.5719 19.7288 42.4248 20.3782 42.1522 20.8646ZM31.1831 21.8589C30.9921 22.3088 30.4871 22.7892 29.8598 22.4908C29.2404 22.1917 28.2541 20.1717 28.2541 20.1717C28.2541 20.1717 27.8797 19.4186 27.8075 19.438C27.8075 19.438 27.7268 19.2912 27.6772 20.1142C27.6257 20.9337 27.687 22.5316 27.3602 22.7831C27.0509 23.0353 26.6761 22.9349 26.4815 22.6403C26.305 22.3496 26.2314 21.6602 26.3278 20.4488C26.4412 19.2346 26.7229 17.9435 27.083 17.5414C27.4426 17.1419 27.7313 17.4319 27.8438 17.5371C27.8438 17.5371 28.3247 17.9733 29.118 19.2541L29.258 19.4911C29.258 19.4911 29.9787 20.701 30.0543 20.6983C30.0543 20.6983 30.113 20.7536 30.1657 20.7135C30.2412 20.6922 30.2106 20.3042 30.2106 20.3042C30.2106 20.3042 30.0611 18.9855 29.4037 16.7535C29.4037 16.7535 29.3041 16.4753 29.3713 16.2144C29.4379 15.9507 29.7022 16.0743 29.7022 16.0743C29.7022 16.0743 30.7213 16.5871 31.216 18.2473C31.7076 19.9078 31.3773 21.4061 31.1831 21.8589ZM36.7933 18.2223C36.072 18.3887 34.1755 18.4811 34.1755 18.4811L33.9364 19.2308C33.9364 19.2308 34.8841 19.1495 35.5736 19.2216C35.5736 19.2216 35.7971 19.1957 35.8234 19.4754C35.8322 19.7363 35.8013 20.016 35.8013 20.016C35.8013 20.016 35.7868 20.1854 35.5469 20.2285C35.2872 20.272 33.5043 20.3407 33.5043 20.3407L33.2156 21.3178C33.2156 21.3178 33.1084 21.5437 33.3487 21.4792C33.5722 21.4193 35.4402 21.0687 35.6834 21.1191C35.9443 21.1839 36.2326 21.5315 36.1495 21.8485C36.0499 22.2416 34.1853 23.4308 33.0501 23.348C33.0501 23.348 32.4536 23.3866 31.9489 22.5808C31.4795 21.8131 32.1271 20.3598 32.1271 20.3598C32.1271 20.3598 31.8304 19.681 32.0455 19.4514C32.0455 19.4514 32.1733 19.3349 32.5466 19.3086L33.0035 18.3628C33.0035 18.3628 32.4829 18.3986 32.1733 18.0156C31.8849 17.6519 31.8609 17.4852 32.0821 17.3848C32.3186 17.2677 34.4863 16.8721 35.9778 16.922C35.9778 16.922 36.4962 16.8713 36.9458 17.771C36.9458 17.771 37.1636 18.135 36.7933 18.2223ZM17.4323 19.104C17.466 19.412 17.3869 19.9946 17.3733 20.0712C17.3481 20.2486 17.2146 20.6568 17.1926 20.7068C17.0848 20.955 16.9786 21.1584 16.866 21.3612C16.673 21.7089 16.2145 22.2593 15.9421 22.4949C14.9293 23.3705 13.3617 23.8693 12.0167 24.0338C11.1042 24.1439 10.0554 24.1274 9.08845 23.9486C8.75575 23.8881 8.26058 23.7739 8.26058 23.7739C8.26058 23.7739 8.26206 23.9722 8.24625 24.1114C8.23848 24.175 8.19068 24.3422 8.16385 24.3966C8.09345 24.5418 7.97808 24.6167 7.81032 24.6489C7.60782 24.6865 7.39268 24.6991 7.20557 24.6191C6.89836 24.4895 6.788 24.202 6.73448 23.8703C6.69091 23.6047 6.64565 23.1434 6.64565 23.1434C6.64565 23.1434 6.41583 23.0344 6.22392 22.939C5.63505 22.6484 5.07585 22.2969 4.58647 21.9352C4.45097 21.834 3.86846 21.3461 3.73975 21.2248C3.37937 20.8825 3.05507 20.5416 2.80851 20.1047C2.61667 19.7636 2.5616 19.4602 2.70733 19.0985C2.90863 18.5946 3.63108 18.2147 4.12562 17.9984C4.48889 17.838 5.61733 17.4692 6.08637 17.401C6.3078 17.3692 6.6513 17.3075 6.67248 17.294C6.68103 17.2875 6.68717 17.2817 6.69331 17.2745C6.70426 17.2593 6.72233 16.7599 6.71859 16.5777C6.7145 16.3979 6.85168 15.2188 6.89581 14.9695C6.91904 14.8347 7.02107 14.3156 7.12529 14.1792C7.19328 14.0874 7.31395 14.0946 7.41216 14.155C7.94991 14.4896 8.11322 15.6498 8.15326 16.2403C8.17719 16.6002 8.18912 17.141 8.18912 17.141C8.18912 17.141 8.80595 17.1229 9.1856 17.1334C9.55424 17.1422 9.96073 17.2005 10.3436 17.2615C10.8336 17.3397 11.7889 17.5485 12.3367 17.8262C12.7878 18.0549 13.2099 18.4405 13.3468 18.8486C13.4739 19.2226 13.4549 19.4815 13.2613 19.8189C13.0438 20.2 12.6318 20.4835 12.2145 20.5067C12.0902 20.5139 11.6227 20.4521 11.4786 20.3407C11.4222 20.2959 11.4251 20.2158 11.4659 20.1617C11.4813 20.1423 11.6999 20.0264 11.8288 19.9584C11.8936 19.9232 11.9473 19.8852 11.9975 19.8393C12.1049 19.7447 12.2012 19.6408 12.1906 19.5191C12.1758 19.3608 12.0085 19.2633 11.8489 19.2004C11.101 18.9032 9.60741 18.6564 8.88538 18.6136C8.60295 18.597 8.20127 18.583 8.20127 18.583L8.28621 22.5701C8.28621 22.5701 8.6182 22.6337 8.88016 22.6761C9.03034 22.699 9.66679 22.7561 9.83618 22.7602C11.1238 22.7944 12.5615 22.6792 13.7435 22.1209C14.2623 21.8764 14.7383 21.5725 15.0987 21.1608C15.5739 20.6158 15.8225 19.8702 15.7569 19.0916C15.6846 18.2407 15.0861 17.2311 14.6084 16.6166C13.3459 14.9919 11.1817 13.6558 9.27796 12.8726C7.33428 12.0734 5.41314 11.6135 3.35 11.5366C2.8184 11.5166 1.65874 11.5437 1.07278 11.7059C0.989036 11.7295 0.90466 11.7577 0.82671 11.7753C0.765423 11.79 0.668691 11.8307 0.642002 11.8524C0.627527 11.8642 0.61277 11.8805 0.61277 11.8805C0.61277 11.8805 0.649062 11.9006 0.683378 11.9153C0.745724 11.9423 1.00704 11.9587 1.14232 11.9835C1.26313 12.0064 1.38924 12.07 1.43894 12.1587C1.48632 12.2429 1.49246 12.3093 1.4357 12.3797C1.30295 12.5414 0.802986 12.514 0.582904 12.4793C0.354278 12.4427 0.0694487 12.3728 0.0171289 12.1734C-0.0436639 11.9387 0.0677541 11.7088 0.18821 11.4959C0.43011 11.0703 0.776367 10.8492 1.28382 10.7105C2.00437 10.5121 2.91428 10.3736 3.59451 10.3475C5.1348 10.2894 6.59213 10.5586 8.0842 11.012C8.9382 11.2702 10.0564 11.7037 10.8749 12.0982C11.4622 12.3817 12.3876 12.9025 12.9074 13.243C13.0715 13.3512 14.0309 14.0562 14.1799 14.1804C14.4909 14.4348 14.8976 14.8002 15.1918 15.0924C15.7617 15.6575 16.4704 16.523 16.8146 17.2104C16.8973 17.375 16.9616 17.5367 17.0683 17.7273C17.105 17.7926 17.2625 18.1837 17.2884 18.2964C17.3145 18.4082 17.3525 18.5724 17.3578 18.5788C17.3654 18.6387 17.4379 18.9746 17.4323 19.104ZM6.64456 18.6476C6.64456 18.6476 6.05619 18.6893 5.65126 18.7341C5.13611 18.7898 4.16809 18.957 3.6093 19.1567C3.44204 19.2169 3.1015 19.359 3.0717 19.5314C3.0407 19.7102 3.15156 19.85 3.27491 19.9946C3.34636 20.0784 3.74981 20.4668 3.86292 20.5615C4.33705 20.9574 5.29893 21.5684 6.00733 21.8652C6.2505 21.9657 6.65311 22.11 6.65311 22.11C6.65311 22.11 6.62317 20.9632 6.6286 19.8336C6.63157 19.2374 6.64456 18.6476 6.64456 18.6476ZM18.6706 17.0947C18.694 17.0988 18.7302 17.1094 18.7613 17.1211C19.0313 17.2239 19.1421 17.4742 19.2089 17.7485C19.363 18.3859 19.4288 19.7965 19.4543 20.349C19.473 20.763 19.4833 21.1711 19.5007 21.5805C19.5152 21.9273 19.5433 22.3887 19.4709 22.7137C19.4448 22.8304 19.3666 22.9664 19.2546 23.036C19.1263 23.118 18.8345 23.1245 18.6742 23.0911C18.279 23.0092 18.1504 22.7552 18.094 22.3642C17.9599 21.4309 18.0244 19.5993 18.1037 18.8262C18.13 18.5712 18.226 17.7532 18.3594 17.4103C18.4049 17.2946 18.5017 17.062 18.6706 17.0947ZM17.9823 15.9058C17.9305 15.9608 17.8757 16.0936 17.8183 16.1895C17.788 16.2409 17.7316 16.3069 17.6942 16.3333C17.5632 16.4298 17.4522 16.4344 17.3253 16.3227C17.148 16.166 17.0454 15.9227 17.0381 15.6866C17.0345 15.5835 17.0518 15.4697 17.0325 15.3824C17.0003 15.2357 16.8533 15.0847 16.7742 14.9445C16.6812 14.7789 16.6062 14.4905 16.597 14.3045C16.5648 13.7245 16.8705 13.19 17.2678 12.7684C17.6679 12.3422 18.1911 11.9878 18.7599 11.7468C19.2978 11.5199 20.0862 11.3655 20.6768 11.5702C20.869 11.6363 21.1368 11.8001 21.2717 11.9714C21.3001 12.0071 21.3235 12.0457 21.3529 12.0644C21.379 12.0812 21.4478 12.0877 21.5023 12.0977C21.691 12.1304 21.9622 12.2731 22.073 12.3684C22.2956 12.5603 22.4172 12.7439 22.4738 13.0105C22.587 13.5467 22.2784 14.1351 21.9268 14.4929C21.3247 15.1094 20.7302 15.5428 19.9601 15.8445C19.6218 15.9765 19.0949 16.1 18.7112 16.0655C18.5921 16.0555 18.4695 16.024 18.3535 16.0164C18.2946 16.0112 18.0779 15.9555 18.0548 15.9397C18.0258 15.9176 17.989 15.8982 17.9823 15.9058ZM19.2653 14.9632C19.769 14.9287 20.2409 14.7837 20.68 14.5398C21.1111 14.2988 21.7446 13.8286 21.6789 13.2754C21.6588 13.0966 21.5419 12.9614 21.3939 12.8983C21.2017 12.8152 21.1017 12.8286 20.8562 12.9012C20.678 12.9539 20.5976 12.9854 20.4292 13.0819C19.935 13.3691 19.2344 13.9837 18.8541 14.4743C18.7662 14.5901 18.6773 14.7193 18.6079 14.8082C18.5637 14.8627 18.5297 14.9129 18.5341 14.9264C18.549 14.9819 19.0684 14.9767 19.2653 14.9632ZM17.4927 14.4889C17.4927 14.4889 17.6599 14.238 17.7999 14.0479C18.055 13.7013 18.5165 13.2205 18.864 12.9228C18.9703 12.8322 19.0958 12.7293 19.0958 12.7293C19.0958 12.7293 18.8996 12.7492 18.7886 12.772C18.5249 12.8235 18.1382 13.0808 17.9448 13.2468C17.626 13.5199 17.2755 13.9637 17.4341 14.358C17.4569 14.4141 17.4927 14.4889 17.4927 14.4889ZM23.6077 19.0741C23.6364 19.0782 23.6425 19.0792 23.6706 19.083C24.139 19.1465 24.5992 19.2309 24.9513 19.3884C25.278 19.5326 25.4692 19.7154 25.6438 20.0406C25.9095 20.5339 25.9268 21.2248 25.6869 21.748C25.5073 22.1371 25.1137 22.4634 24.7543 22.6366C24.3809 22.8175 24.0135 22.9036 23.5917 22.952C22.8538 23.0329 22.0573 22.8801 21.3934 22.559C21.0006 22.3671 20.5213 22.0368 20.2793 21.6109C20.1013 21.2992 20.1071 20.8938 20.3235 20.5972C20.6685 20.1249 21.4069 20.0208 21.9637 20.0406C22.3879 20.0568 23.1518 20.1882 23.5548 20.3314C23.6665 20.3719 24.0781 20.5322 24.1502 20.606C24.2007 20.6573 24.2337 20.7315 24.2107 20.8002C24.1187 21.0822 23.4346 21.2306 23.2372 21.2605C22.7083 21.3411 22.4338 21.1411 21.8326 20.9036C21.6834 20.8451 21.4845 20.7801 21.3324 20.7662C21.0595 20.7403 20.73 20.8166 20.6778 21.1149C20.6519 21.2686 20.8321 21.4123 20.9694 21.4724C21.292 21.6109 21.5539 21.6609 21.8715 21.6653C22.809 21.6806 23.863 21.5262 24.63 20.9826C24.7347 20.9077 24.8379 20.7978 24.8391 20.6597C24.8424 20.3803 24.353 20.2096 24.353 20.2096C23.8363 19.994 22.8817 19.8892 22.3898 19.8487C21.874 19.8041 21.0619 19.7371 20.8669 19.7083C20.6663 19.6796 20.4482 19.6392 20.2744 19.5609C20.0999 19.4823 19.9291 19.3058 19.8782 19.1102C19.7883 18.758 19.9031 18.3256 20.0987 18.0444C20.6112 17.3071 21.8114 17.0273 22.7083 16.9163C23.5763 16.8081 24.9794 16.8092 25.832 17.2626C25.9636 17.3328 26.0309 17.3989 26.0032 17.5393C25.9478 17.8038 25.7491 17.9741 25.5086 18.049C25.2564 18.129 24.734 18.1607 24.5045 18.1748C23.4769 18.2326 22.2346 18.2022 21.2558 18.4695C21.1791 18.4914 21.0465 18.527 21.0035 18.5751C20.8503 18.7417 21.2879 18.789 21.3817 18.8084C21.4096 18.8149 21.4151 18.8159 21.4441 18.819L23.6077 19.0741Z" fill="white"/>
</g>
</g>
<g id="Group 6">
<mask id="mask1" mask-type="alpha" maskUnits="userSpaceOnUse" x="8" y="0" width="41" height="15">
<path id="Clip 5" fill-rule="evenodd" clip-rule="evenodd" d="M8.98212 9.88892C8.93631 9.95617 8.92511 10.0395 8.9516 10.1174C8.97911 10.1958 9.03914 10.2554 9.11647 10.2817L9.69776 10.4763C9.7328 10.4874 9.76798 10.493 9.80202 10.493C9.90995 10.493 10.0108 10.4399 10.0708 10.351C11.9748 7.57277 14.5523 5.25961 17.5236 3.66126C20.5917 2.01135 24.068 1.13886 27.5773 1.13886C31.816 1.13886 35.906 2.38041 39.4053 4.72937C42.8195 7.02128 45.4707 10.218 47.0729 13.9748C47.1207 14.0871 47.2312 14.1599 47.3539 14.1599H48.048C48.128 14.1599 48.2033 14.1199 48.2486 14.0532C48.2939 13.987 48.3026 13.9031 48.2725 13.8287C46.6204 9.78886 43.8261 6.34541 40.1917 3.87157C36.4711 1.33854 32.1087 0 27.5773 0C20.0859 0 13.1343 3.69663 8.98212 9.88892Z" fill="white"/>
</mask>
<g mask="url(#mask1)">
<path id="Fill 4" fill-rule="evenodd" clip-rule="evenodd" d="M8.98212 9.88892C8.93631 9.95617 8.92511 10.0395 8.9516 10.1174C8.97911 10.1958 9.03914 10.2554 9.11647 10.2817L9.69776 10.4763C9.7328 10.4874 9.76798 10.493 9.80202 10.493C9.90995 10.493 10.0108 10.4399 10.0708 10.351C11.9748 7.57277 14.5523 5.25961 17.5236 3.66126C20.5917 2.01135 24.068 1.13886 27.5773 1.13886C31.816 1.13886 35.906 2.38041 39.4053 4.72937C42.8195 7.02128 45.4707 10.218 47.0729 13.9748C47.1207 14.0871 47.2312 14.1599 47.3539 14.1599H48.048C48.128 14.1599 48.2033 14.1199 48.2486 14.0532C48.2939 13.987 48.3026 13.9031 48.2725 13.8287C46.6204 9.78886 43.8261 6.34541 40.1917 3.87157C36.4711 1.33854 32.1087 0 27.5773 0C20.0859 0 13.1343 3.69663 8.98212 9.88892Z" fill="url(#paint0_linear)"/>
</g>
</g>
</g>
<defs>
<linearGradient id="paint0_linear" x1="54.0004" y1="7.53395" x2="30.8351" y2="-12.4301" gradientUnits="userSpaceOnUse">
<stop stop-color="white"/>
<stop offset="0.117886" stop-color="#69E3F1"/>
<stop offset="0.563942" stop-color="#2961E9"/>
<stop offset="1" stop-color="#265ADF" stop-opacity="0.01"/>
</linearGradient>
</defs>
</svg>
