<svg width="81" height="17" viewBox="0 0 81 17" fill="none" xmlns="http://www.w3.org/2000/svg">
<path d="M32.4531 3.22754H35.9347C38.781 3.22754 41.0936 5.41306 41.0936 8.23391C41.0936 11.0802 38.8064 13.2403 35.9347 13.2403H32.4531V3.22754ZM34.9436 11.131H35.706C37.307 11.131 38.5777 9.7841 38.5777 8.23391C38.5777 6.70912 37.307 5.33682 35.706 5.33682H34.9436V11.131Z" fill="white"/>
<path d="M52.4782 8.23377C52.4782 11.1563 50.0386 13.4943 47.1161 13.4943C44.1936 13.4943 41.7539 11.1817 41.7539 8.23377C41.7539 5.31127 44.1936 2.97327 47.1161 2.97327C50.0386 2.99868 52.4782 5.31127 52.4782 8.23377ZM44.2444 8.23377C44.2444 9.75855 45.5404 11.2071 47.1161 11.2071C48.6917 11.2071 49.9877 9.78396 49.9877 8.23377C49.9877 6.70898 48.6917 5.26044 47.1161 5.26044C45.5404 5.26044 44.2444 6.70898 44.2444 8.23377Z" fill="white"/>
<path d="M60.9913 6.20087C60.356 5.61637 59.492 5.286 58.6279 5.286C56.8998 5.286 55.6292 6.53124 55.6292 8.25932C55.6292 10.1399 57.0777 11.2326 58.8058 11.2326C59.187 11.2326 59.9494 11.1564 60.2289 10.8769V9.40291H57.6368L58.3484 7.29363H62.7194V12.4525C61.7029 13.037 60.0002 13.469 58.4754 13.469C55.5529 13.469 53.1133 11.1564 53.1133 8.2085C53.1133 5.286 55.5529 2.948 58.4754 2.948C59.9494 2.948 61.3725 3.45626 62.4145 4.34571L60.9913 6.20087Z" fill="white"/>
<path d="M63.5082 3.22754H70.2173V5.08269H67.7268V13.2657L65.7954 13.3928V5.08269H63.0254L63.5082 3.22754Z" fill="white"/>
<path d="M75.5799 9.30121L78.045 2.99878L80.0018 3.2275L75.6053 13.4944H75.5799L71.3105 3.2275L73.369 2.99878L75.5799 9.30121Z" fill="white"/>
<path d="M15.9848 14.3075L21.7281 13.0623C21.7281 13.0623 24.1424 12.6303 23.6595 16.4676H29.1996V0H0V16.4676H14.028C14.2313 14.3838 15.9848 14.3075 15.9848 14.3075ZM23.9391 6.37867C23.4054 7.26813 22.1856 7.014 21.7281 6.73445C22.1856 7.90345 23.075 10.826 21.3978 11.8679L15.7561 13.1385L15.6798 13.164C14.0788 12.6557 13.5197 10.0381 13.3673 8.91997C13.0877 9.37741 12.1474 10.1906 11.258 9.68237C10.3685 9.14869 9.40282 9.83484 9.25034 9.27576C8.61502 6.78528 10.7243 5.33674 10.7243 5.33674C13.0623 4.72682 13.7484 6.35326 13.7484 6.35326C13.7484 6.35326 14.0534 5.41298 16.7218 4.72682C19.4156 4.04067 20.1271 4.70141 20.1271 4.70141C20.1271 4.70141 19.9492 2.97333 22.2872 2.36341C22.2872 2.36341 24.8285 2.59213 25.4893 5.10802C25.6417 5.61628 24.4727 5.48922 23.9391 6.37867Z" fill="white"/>
</svg>
