<svg width="83" height="15" viewBox="0 0 83 15" fill="none" xmlns="http://www.w3.org/2000/svg">
<path d="M55.0004 5.24674C55.0016 5.2563 55.0004 14.1845 55.0004 14.1845C55.0004 14.3043 54.9197 14.4261 54.8023 14.4261H53.5941C52.8875 14.4274 52.3008 13.8223 52.2996 13.1031V5.27862C52.2456 3.58582 51.0622 2.69128 49.6102 2.69383C48.1589 2.69575 46.9774 3.62918 46.9285 5.32197V14.1953C46.9285 14.3152 46.8447 14.4255 46.7272 14.4255H45.519C44.8124 14.4267 44.2258 13.793 44.2245 13.0744V5.29009C44.1705 3.5973 42.9871 2.70276 41.5351 2.70531C40.0838 2.70722 38.9023 3.60495 38.8534 5.29775V14.2068C38.8534 14.3266 38.7696 14.4255 38.6522 14.4255H37.444C36.7374 14.4267 36.1539 13.8446 36.1526 13.1254C36.1526 13.1254 36.152 5.28627 36.1526 5.27862C36.2225 1.84265 38.6026 0.0191515 41.532 0.015326C43.1395 0.0127756 44.5832 0.559189 45.5717 1.62014C46.5577 0.556001 47.9995 0.00639976 49.607 0.00384941C52.5332 0.000661466 54.9178 1.81524 55.0004 5.24674Z" fill="white"/>
<path d="M82.8341 14.2546C82.8824 14.326 82.8297 14.421 82.7421 14.421L80.5841 14.4267C80.0781 14.428 79.5848 14.3661 79.1474 13.7496L76.9393 10.4775C76.7666 10.2212 76.5158 9.91768 76.1596 9.91768C75.8035 9.91768 75.5527 10.2212 75.38 10.4775L73.1719 13.7496C72.7344 14.3661 72.2411 14.428 71.7351 14.4267H69.5772C69.4896 14.4267 69.4369 14.326 69.4851 14.2546L73.7433 7.94179C73.8671 7.75753 73.9274 7.54394 73.9248 7.33035C73.9274 7.11675 73.8671 6.90316 73.7433 6.7189L69.4851 0.406136C69.4369 0.334726 69.4896 0.237813 69.5772 0.237813H71.7351C72.2411 0.236538 72.7344 0.294558 73.1719 0.911106L75.38 4.18321C75.5527 4.43952 75.8041 4.74301 76.1596 4.74301C76.5152 4.74301 76.7666 4.43952 76.9393 4.18321L79.1474 0.911106C79.5848 0.294558 80.0781 0.236538 80.5841 0.237813H82.7421C82.8297 0.237813 82.8824 0.334726 82.8341 0.406136L78.576 6.7189C78.4522 6.90316 78.3919 7.11675 78.3944 7.33035C78.3919 7.54394 78.4522 7.75753 78.576 7.94179L82.8341 14.2546Z" fill="white"/>
<path d="M68.6375 0.237881H67.7874C67.3214 0.238518 66.8903 0.487177 66.6573 0.891409L66.3431 1.44228C65.1203 0.408117 63.535 0.00579834 62.2253 0.00579834C58.2636 0.00579834 55.627 2.81693 55.627 7.26857C55.627 11.7559 58.308 14.5313 62.1935 14.5313C63.681 14.5313 65.1559 14.0372 66.0993 13.2702C66.1526 13.9435 66.7138 14.4274 67.3995 14.4274H68.6325C68.7524 14.4274 68.8502 14.3751 68.8502 14.2553L68.8553 0.456573C68.8553 0.334794 68.7582 0.237881 68.6375 0.237881ZM62.1675 11.8273C59.9149 11.8273 58.2642 10.1435 58.2642 7.26793C58.2642 4.39241 59.9149 2.70854 62.1675 2.70854C64.42 2.70854 66.0707 4.39241 66.0707 7.26793C66.0707 10.1435 64.42 11.8273 62.1675 11.8273Z" fill="white"/>
<path d="M6.44721 5.51578H3.95594V0.237183H0V14.4267H3.95594V8.92113H6.44721V14.4267H10.2851V0.237183H6.44721V5.51578Z" fill="white"/>
<path d="M27.8747 -5.84299e-05C23.9206 -0.00324637 21.9004 2.9201 21.4014 4.09963C21.4059 2.32841 19.6682 0.2384 17.6347 0.235849H11.084V14.426L17.1915 14.4273C19.6536 14.4273 21.4059 12.2844 21.4091 10.4475C21.9709 11.604 23.9206 14.4987 27.8747 14.4968C31.8332 14.4955 35.0545 11.1922 35.0533 7.21617C35.0526 3.15664 31.8332 0.00312951 27.8747 -5.84299e-05ZM16.6798 11.1214H14.7371V8.72342H16.6798C17.2449 8.72342 17.6899 9.28386 17.6899 9.92273C17.6899 10.561 17.2449 11.1214 16.6798 11.1214ZM16.6868 5.79371H14.7441V3.3951H16.6868C17.2519 3.3951 17.6969 3.95554 17.6969 4.59377C17.6969 5.23263 17.2519 5.79371 16.6868 5.79371ZM19.2727 7.21935C19.7177 7.16261 20.4593 6.6519 20.7208 6.32545C20.6288 6.72969 20.6218 7.9003 20.7291 8.30517C20.4307 7.84355 19.7247 7.2761 19.2727 7.21935ZM27.8772 10.8313C25.8907 10.8313 24.2806 9.21437 24.2806 7.21935C24.2806 5.22498 25.8907 3.60742 27.8772 3.60742C29.8638 3.60742 31.4738 5.22434 31.4738 7.21935C31.4738 9.21437 29.8631 10.8313 27.8772 10.8313Z" fill="white"/>
<path d="M27.876 4.38025C26.3141 4.38025 25.0488 5.6516 25.0488 7.21943C25.0488 8.7879 26.3148 10.0592 27.876 10.0592C29.4371 10.0592 30.7031 8.7879 30.7031 7.21943C30.7031 5.6516 29.4371 4.38025 27.876 4.38025Z" fill="white"/>
</svg>
