<svg width="50" height="20" viewBox="0 0 50 20" fill="none" xmlns="http://www.w3.org/2000/svg">
<path fill-rule="evenodd" clip-rule="evenodd" d="M39.4082 13.6958H42.5161V3.84387H39.4082V13.6958Z" fill="#F2F2F2"/>
<path fill-rule="evenodd" clip-rule="evenodd" d="M39.4082 19.8182H42.5161V16.9996H39.4082V19.8182Z" fill="#F2F2F2"/>
<path fill-rule="evenodd" clip-rule="evenodd" d="M46.2891 6.84723H49.5455V3.84387H46.2891V6.84723Z" fill="#F2F2F2"/>
<path fill-rule="evenodd" clip-rule="evenodd" d="M7.5293 3.18581H10.6122V0.181824H7.5293V3.18581Z" fill="#F2F2F2"/>
<path fill-rule="evenodd" clip-rule="evenodd" d="M0.455078 16.3413H3.60264V13.4932H0.455078V16.3413Z" fill="#F2F2F2"/>
<path fill-rule="evenodd" clip-rule="evenodd" d="M7.5293 16.3413H10.6122V6.67249H7.5293V16.3413Z" fill="#F2F2F2"/>
<path fill-rule="evenodd" clip-rule="evenodd" d="M23.8499 3.84406H13.2668V6.84741H19.6491L13.0918 13.4153V16.4188H23.8499V13.4153H17.4958L23.8499 6.84741V3.84406Z" fill="#F2F2F2"/>
<path fill-rule="evenodd" clip-rule="evenodd" d="M36.791 3.84406H26.2081V6.84741H32.5906L26.0352 13.4153V16.4188H36.791V13.4153H30.4357L36.791 6.84741V3.84406Z" fill="#F2F2F2"/>
</svg>
