<svg width="90" height="36" viewBox="0 0 90 36" fill="none" xmlns="http://www.w3.org/2000/svg">
<path fill-rule="evenodd" clip-rule="evenodd" d="M66.6113 23.5437H71.2731V8.76587H66.6113V23.5437Z" fill="black"/>
<path fill-rule="evenodd" clip-rule="evenodd" d="M66.6113 32.7272H71.2731V28.4993H66.6113V32.7272Z" fill="#FFCD02"/>
<path fill-rule="evenodd" clip-rule="evenodd" d="M76.9336 13.2709H81.8183V8.76587H76.9336V13.2709Z" fill="#D31772"/>
<path fill-rule="evenodd" clip-rule="evenodd" d="M18.793 7.77868H23.4173V3.27271H18.793V7.77868Z" fill="#F47E28"/>
<path fill-rule="evenodd" clip-rule="evenodd" d="M8.18164 27.512H12.903V23.2397H8.18164V27.512Z" fill="#00B0AC"/>
<path fill-rule="evenodd" clip-rule="evenodd" d="M18.793 27.512H23.4173V13.0088H18.793V27.512Z" fill="black"/>
<path fill-rule="evenodd" clip-rule="evenodd" d="M43.2748 8.76611H27.4002V13.2712H36.9737L27.1377 23.1229V27.6283H43.2748V23.1229H33.7437L43.2748 13.2712V8.76611Z" fill="black"/>
<path fill-rule="evenodd" clip-rule="evenodd" d="M62.6865 8.76611H46.8121V13.2712H56.3859L46.5527 23.1229V27.6283H62.6865V23.1229H53.1535L62.6865 13.2712V8.76611Z" fill="black"/>
</svg>
