<svg width="63" height="25" viewBox="0 0 63 25" fill="none" xmlns="http://www.w3.org/2000/svg">
<g id="izzitv-hd+">
<path id="Shape" fill-rule="evenodd" clip-rule="evenodd" d="M19.2989 7.26204H17.4167V5.79016H19.2989V7.26204ZM1.88253 7.26206H0V5.79018H1.88253V7.26206ZM1.86782 15.732H0.0284911V8.49764H1.86782V15.732ZM3.40952 15.732V14.3573L6.67801 10.1224H3.59338V8.49764H9.02646V9.87241L5.71588 14.1076H9.02646V15.732H3.40952ZM10.1723 14.3573V15.732H15.7889V14.1076H12.4783L15.7889 9.87241V8.49764H10.3562V10.1224H13.4401L10.1723 14.3573ZM17.4452 15.732H19.2845V8.49764H17.4452V15.732Z" fill="#404042"/>
<g id="Group">
<path id="Shape_2" fill-rule="evenodd" clip-rule="evenodd" d="M22.2869 13.497C22.2869 14.562 22.9328 15.5546 24.3296 15.5546H25.2257V14.2846H24.6089C24.0502 14.2846 23.7858 13.9637 23.7858 13.4237V9.42608H25.2257V8.2878H23.7858V6.04083H22.2866V8.2878H21.4336V9.42608H22.2869V13.497ZM28.7803 15.5546H30.0006L32.7341 8.15658H31.1467L29.3979 13.3654L27.6342 8.15658H26.0475L28.7803 15.5546Z" fill="#404042"/>
<g id="Clipped">
<mask id="mask0" mask-type="alpha" maskUnits="userSpaceOnUse" x="0" y="0" width="63" height="25">
<path id="a" fill-rule="evenodd" clip-rule="evenodd" d="M0 24.8324H62.5173V0H0V24.8324Z" fill="white"/>
</mask>
<g mask="url(#mask0)">
<path id="Path" d="M44.0508 18.3308H62.5165V0H44.0508V18.3308Z" fill="#E01D45"/>
</g>
</g>
<g id="Clipped_2">
<mask id="mask1" mask-type="alpha" maskUnits="userSpaceOnUse" x="0" y="0" width="63" height="25">
<path id="a_2" fill-rule="evenodd" clip-rule="evenodd" d="M0 24.8324H62.5173V0H0V24.8324Z" fill="white"/>
</mask>
<g mask="url(#mask1)">
<path id="Path_2" d="M44.0508 24.8324H51.7721V18.3311H44.0508L44.0508 24.8324Z" fill="#F47E28"/>
</g>
</g>
<g id="Clipped_3">
<mask id="mask2" mask-type="alpha" maskUnits="userSpaceOnUse" x="0" y="0" width="63" height="25">
<path id="a_3" fill-rule="evenodd" clip-rule="evenodd" d="M0 24.8324H62.5173V0H0V24.8324Z" fill="white"/>
</mask>
<g mask="url(#mask2)">
<path id="Path_3" d="M44.0508 18.3281H48.2173V5.43359H44.0508V18.3281Z" fill="#992841"/>
</g>
</g>
<g id="Clipped_4">
<mask id="mask3" mask-type="alpha" maskUnits="userSpaceOnUse" x="0" y="0" width="63" height="25">
<path id="a_4" fill-rule="evenodd" clip-rule="evenodd" d="M0 24.8324H62.5173V0H0V24.8324Z" fill="white"/>
</mask>
<g mask="url(#mask3)">
<path id="Path_4" d="M35.25 18.3309H44.0508V5.43408H35.25V18.3309Z" fill="#D30E8B"/>
</g>
</g>
<g id="Clipped_5">
<mask id="mask4" mask-type="alpha" maskUnits="userSpaceOnUse" x="0" y="0" width="63" height="25">
<path id="a_5" fill-rule="evenodd" clip-rule="evenodd" d="M0 24.8324H62.5173V0H0V24.8324Z" fill="white"/>
</mask>
<g mask="url(#mask4)">
<path id="Path_5" d="M39.4414 18.3308H44.0519V15.9943H39.4414V18.3308Z" fill="#871B54"/>
</g>
</g>
<g id="Clipped_6">
<mask id="mask5" mask-type="alpha" maskUnits="userSpaceOnUse" x="0" y="0" width="63" height="25">
<path id="a_6" fill-rule="evenodd" clip-rule="evenodd" d="M0 24.8324H62.5173V0H0V24.8324Z" fill="white"/>
</mask>
<g mask="url(#mask5)">
<path id="Path_6" d="M44.0508 18.3308H51.7714V17.1622H44.0508V18.3308Z" fill="#DF628F"/>
</g>
</g>
<g id="Clipped_7">
<mask id="mask6" mask-type="alpha" maskUnits="userSpaceOnUse" x="0" y="0" width="63" height="25">
<path id="a_7" fill-rule="evenodd" clip-rule="evenodd" d="M0 24.8324H62.5173V0H0V24.8324Z" fill="white"/>
</mask>
<g mask="url(#mask6)">
<path id="Path_7" d="M39.4414 20.6598H44.0519V18.3311H39.4414V20.6598Z" fill="#FFD64F"/>
</g>
</g>
<g id="Clipped_8">
<mask id="mask7" mask-type="alpha" maskUnits="userSpaceOnUse" x="0" y="0" width="63" height="25">
<path id="a_8" fill-rule="evenodd" clip-rule="evenodd" d="M0 24.8324H62.5173V0H0V24.8324Z" fill="white"/>
</mask>
<g mask="url(#mask7)">
<path id="Shape_3" fill-rule="evenodd" clip-rule="evenodd" d="M53.9713 7.0993H57.7865C59.9666 7.0993 61.268 8.31043 61.268 10.34C61.268 10.803 61.1872 11.293 60.909 12.7374C60.37 15.4596 60.1439 16.1944 59.1662 17.1656C58.3896 17.937 57.2982 18.3282 55.9238 18.3282H51.6992L53.9713 7.0993ZM57.2295 15.3668C57.5376 15.0617 57.7037 14.6312 58.0792 12.6893C58.2941 11.5958 58.4032 10.8884 58.4032 10.5866C58.4032 9.77449 57.8307 9.60437 57.351 9.60437H56.3554L55.1038 15.8227H56.032C56.5364 15.8227 56.9167 15.6774 57.2295 15.3668Z" fill="#B92745"/>
</g>
</g>
<g id="Clipped_9">
<mask id="mask8" mask-type="alpha" maskUnits="userSpaceOnUse" x="0" y="0" width="63" height="25">
<path id="a_9" fill-rule="evenodd" clip-rule="evenodd" d="M0 24.8324H62.5173V0H0V24.8324Z" fill="white"/>
</mask>
<g mask="url(#mask8)">
<path id="Path_8" d="M49.3538 7.10217L48.5042 11.3653H46.085L46.9342 7.10217H44.0557L41.7852 18.3281H44.6644L45.5598 13.9263H47.9786L47.0828 18.3281H49.962L52.2334 7.10217L49.3538 7.10217Z" fill="#040201"/>
</g>
</g>
<g id="Clipped_10">
<mask id="mask9" mask-type="alpha" maskUnits="userSpaceOnUse" x="0" y="0" width="63" height="25">
<path id="a_10" fill-rule="evenodd" clip-rule="evenodd" d="M0 24.8324H62.5173V0H0V24.8324Z" fill="white"/>
</mask>
<g mask="url(#mask9)">
<path id="Path_9" d="M49.8515 7.10523L49.0022 11.3684H46.583L47.4323 7.10486H44.5538L42.2832 18.3308H45.162L46.0578 13.9297H48.4767L47.5809 18.3308H50.4601L52.7314 7.10486L49.8515 7.10523Z" fill="#B92745"/>
</g>
</g>
<g id="Clipped_11">
<mask id="mask10" mask-type="alpha" maskUnits="userSpaceOnUse" x="0" y="0" width="63" height="25">
<path id="a_11" fill-rule="evenodd" clip-rule="evenodd" d="M0 24.8324H62.5173V0H0V24.8324Z" fill="white"/>
</mask>
<g mask="url(#mask10)">
<path id="Shape_4" fill-rule="evenodd" clip-rule="evenodd" d="M53.4795 7.10187H57.2947C59.4744 7.10187 60.7758 8.31337 60.7758 10.3425C60.7758 10.8055 60.695 11.2959 60.4168 12.7404C59.8782 15.4622 59.6513 16.1974 58.6736 17.1685C57.897 17.9399 56.8064 18.3308 55.4316 18.3308H51.2074L53.4795 7.10187ZM49.3558 7.10553L48.5061 11.3687H46.0869L46.9362 7.10516H44.0577L41.7871 18.3311H44.6663L45.5617 13.9296H47.9806L47.0848 18.3311H49.964L52.2353 7.10516L49.3558 7.10553ZM57.5882 12.6923C57.2124 14.6338 57.0463 15.0643 56.7386 15.3694C56.4254 15.6804 56.0451 15.8254 55.5411 15.8254H54.6126L55.8644 9.60701H56.8604C57.3402 9.60701 57.9123 9.77786 57.9123 10.5896C57.9123 10.891 57.8032 11.5984 57.5882 12.6923Z" fill="#FEFEFE"/>
</g>
</g>
<g id="Clipped_12">
<mask id="mask11" mask-type="alpha" maskUnits="userSpaceOnUse" x="0" y="0" width="63" height="25">
<path id="a_12" fill-rule="evenodd" clip-rule="evenodd" d="M0 24.8324H62.5173V0H0V24.8324Z" fill="white"/>
</mask>
<g mask="url(#mask11)">
<path id="Path_10" d="M62.116 22.8625H60.292L59.8979 24.8324H58.0739L58.4688 22.8625H56.6816L57.0437 21.0515H58.8293L59.2171 19.1163H61.0541L60.6544 21.0515H62.4788L62.116 22.8625Z" fill="#050000"/>
</g>
</g>
<g id="Clipped_13">
<mask id="mask12" mask-type="alpha" maskUnits="userSpaceOnUse" x="0" y="0" width="63" height="25">
<path id="a_13" fill-rule="evenodd" clip-rule="evenodd" d="M0 24.8324H62.5173V0H0V24.8324Z" fill="white"/>
</mask>
<g mask="url(#mask12)">
<path id="Path_11" d="M62.116 22.8625H60.292L59.8979 24.8324H58.0739L58.4688 22.8625H56.6816L57.0437 21.0515H58.8293L59.2171 19.1163H61.0541L60.6544 21.0515H62.4788L62.116 22.8625Z" fill="#C6A132"/>
</g>
</g>
<g id="Clipped_14">
<mask id="mask13" mask-type="alpha" maskUnits="userSpaceOnUse" x="0" y="0" width="63" height="25">
<path id="a_14" fill-rule="evenodd" clip-rule="evenodd" d="M0 24.8324H62.5173V0H0V24.8324Z" fill="white"/>
</mask>
<g mask="url(#mask13)">
<path id="Path_12" d="M61.9008 22.6242H60.0775L59.6831 24.5946H57.8587L58.2543 22.6242H56.4668L56.8296 20.8133H58.6145L59.0026 18.8781H60.8393L60.44 20.8133H62.264L61.9008 22.6242Z" fill="#FFD64F"/>
</g>
</g>
</g>
</g>
</svg>
