<svg width="58" height="16" viewBox="0 0 58 16" fill="none" xmlns="http://www.w3.org/2000/svg">
<mask id="mask0" mask-type="alpha" maskUnits="userSpaceOnUse" x="0" y="0" width="58" height="16">
<path fill-rule="evenodd" clip-rule="evenodd" d="M0 0H58V15.5832H0V0Z" fill="white"/>
</mask>
<g mask="url(#mask0)">
<path fill-rule="evenodd" clip-rule="evenodd" d="M38.5889 -0.000183105H36.1462V13.6588C38.3652 13.7354 40.5748 13.8488 42.7773 13.9943V11.5883C41.3844 11.4946 39.9879 11.4167 38.5889 11.3507V-0.000183105ZM57.9995 0.0014021H55.3163L53.5478 4.10062L51.9585 0.0014021H49.3169L52.1565 7.32681L49.0561 14.5106C49.9127 14.5949 50.7693 14.6838 51.6231 14.7787L53.4267 10.6016L55.2104 15.2062C56.1408 15.3257 57.0695 15.4499 57.995 15.5832L57.9995 15.5816L54.8183 7.37542L57.9995 0.0014021ZM27.7632 13.5403L30.2058 13.5394V7.98254H33.5157V5.57626H30.2058V2.43022H34.5806V0.0014021H27.7632V13.5403ZM18.642 2.42893H21.1983V13.6829C22.0118 13.6524 22.8256 13.6279 23.641 13.6067V2.42893H26.1969V0.0014021H18.642V2.42893ZM10.2909 14.3821C12.542 14.178 14.8041 14.0097 17.0765 13.879V11.4721C15.624 11.5561 14.1773 11.6559 12.7339 11.7692V8.12483C13.6809 8.11581 14.9283 8.08652 16.0315 8.10036V5.69311C15.1505 5.6915 13.7315 5.70663 12.7339 5.71919V2.43022H17.0765V0.0014021H10.2909V14.3821ZM5.50146 8.81999L2.32001 0.00252019H0V15.5843C0.812182 15.4681 1.62597 15.3577 2.44137 15.2521V6.77746L5.27001 14.9041C6.1588 14.8001 7.05082 14.7036 7.94412 14.6115V0.00252019H5.50146V8.81999ZM44.7921 14.1397C45.6071 14.2009 46.4209 14.2685 47.2347 14.3406V0.0014021H44.7921V14.1397Z" fill="#E01F1D"/>
</g>
</svg>
