<svg width="55" height="19" viewBox="0 0 55 19" fill="none" xmlns="http://www.w3.org/2000/svg">
<mask id="mask0" mask-type="alpha" maskUnits="userSpaceOnUse" x="0" y="0" width="51" height="19">
<path fill-rule="evenodd" clip-rule="evenodd" d="M0 0H50.0876V18.0306H0V0Z" fill="white"/>
</mask>
<g mask="url(#mask0)">
<path fill-rule="evenodd" clip-rule="evenodd" d="M37.0359 12.9685V6.37131C37.0359 5.40412 37.8227 4.61734 38.7899 4.61734C39.7571 4.61734 40.5435 5.40412 40.5435 6.37131V12.9685H37.0359ZM38.8371 3.82297C39.8911 3.82297 40.7486 2.96507 40.7486 1.91108C40.7486 0.857094 39.8911 0 38.8371 0C37.7831 0 36.9256 0.857094 36.9256 1.91108C36.9256 2.96507 37.7831 3.82297 38.8371 3.82297ZM45.8347 4.61734C43.49 4.61734 41.5822 6.52481 41.5822 8.86986V12.9661H45.0897V8.60265H46.5801V12.9661H50.0872V8.86986C50.0872 6.52481 48.1793 4.61734 45.8347 4.61734ZM36.2875 13.9964C36.2875 16.2076 34.3624 18.0307 31.996 18.0307C29.6698 18.0307 27.7383 16.1815 27.7383 13.8256H30.7716C30.8243 14.534 31.2924 15.0942 31.9747 15.0942C32.6498 15.0942 33.1653 14.585 33.1653 13.8569C33.1653 13.5182 33.0078 13.2132 32.733 12.9914C32.2913 13.0947 31.8325 13.0842 31.8325 13.0842C29.4987 13.0842 27.6004 11.1856 27.6004 8.8522C27.6004 6.5184 29.4987 4.61978 31.8325 4.61978C32.4139 4.61978 33.0263 4.758 33.531 4.97137C34.1614 3.55052 36.0677 4.05561 36.0677 5.5934L36.0645 8.8522C36.0645 9.56986 35.8379 10.6435 35.1527 11.2656C35.1527 11.2656 36.2875 12.1894 36.2875 13.9964ZM33.1673 8.82414C33.1673 8.1334 32.6092 7.57326 31.9213 7.57326C31.2329 7.57326 30.6752 8.1334 30.6752 8.82414C30.6752 9.51447 31.2329 10.0742 31.9213 10.0742C32.6092 10.0742 33.1673 9.51447 33.1673 8.82414ZM27.0569 13.9964C27.0569 16.2076 25.1317 18.0307 22.7654 18.0307C20.4392 18.0307 18.508 16.1815 18.508 13.8256H21.5414C21.5937 14.534 22.0618 15.0942 22.7441 15.0942C23.4192 15.0942 23.9347 14.585 23.9347 13.8569C23.9347 13.5182 23.7768 13.2132 23.5023 12.9914C23.0611 13.0947 22.6018 13.0842 22.6018 13.0842C20.268 13.0842 18.3698 11.1856 18.3698 8.8522C18.3698 6.5184 20.268 4.61978 22.6018 4.61978C23.1837 4.61978 23.7953 4.758 24.3004 4.97137C24.9308 3.55052 26.8367 4.05561 26.8367 5.5934L26.8339 8.8522C26.8339 9.56986 26.6072 10.6435 25.9217 11.2656C25.9217 11.2656 27.0569 12.1894 27.0569 13.9964ZM23.9368 8.82414C23.9368 8.1334 23.3791 7.57326 22.6912 7.57326C22.0028 7.57326 21.4451 8.1334 21.4451 8.82414C21.4451 9.51447 22.0028 10.0742 22.6912 10.0742C23.3791 10.0742 23.9368 9.51447 23.9368 8.82414ZM4.25252 4.61734C1.90747 4.61734 0 6.52481 0 8.86986V12.9661H3.50713V8.60265H4.9975V12.9661H8.50464V8.86986C8.50464 6.52481 6.59717 4.61734 4.25252 4.61734ZM17.6999 8.8571C17.6999 11.1953 15.8044 13.0911 13.4658 13.0911C11.1276 13.0911 9.23219 11.1953 9.23219 8.8571C9.23219 6.51848 11.1276 4.62266 13.4658 4.62266C15.8044 4.62266 17.6999 6.51848 17.6999 8.8571ZM14.7119 8.82414C14.7119 8.1334 14.1541 7.57326 13.4658 7.57326C12.7779 7.57326 12.2198 8.1334 12.2198 8.82414C12.2198 9.51447 12.7779 10.0742 13.4658 10.0742C14.1541 10.0742 14.7119 9.51447 14.7119 8.82414Z" fill="#715CA3"/>
</g>
<path fill-rule="evenodd" clip-rule="evenodd" d="M38.0989 17.5268H38.2572C38.4481 17.5268 38.6478 17.4697 38.6478 17.2347C38.6478 17.002 38.4107 16.9538 38.2259 16.9538H38.0989V17.5268ZM38.0989 16.789H38.1515C38.3468 16.789 38.5075 16.7492 38.5075 16.5126C38.5075 16.2795 38.3492 16.2401 38.1559 16.2401H38.0989V16.789ZM37.8926 16.0553H38.0947C38.4065 16.0553 38.7011 16.1364 38.7011 16.5101C38.7011 16.6311 38.6352 16.7713 38.523 16.824V16.8288C38.7183 16.8637 38.8545 17.0546 38.8545 17.2483C38.8545 17.5798 38.5713 17.7116 38.2791 17.7116H37.8926V16.0553Z" fill="#493274"/>
<path fill-rule="evenodd" clip-rule="evenodd" d="M38.9141 16.0552H39.1515L39.5578 16.7628L39.964 16.0552H40.2011L39.6607 16.9911V17.7115H39.4545V16.9911L38.9141 16.0552Z" fill="#493274"/>
<path fill-rule="evenodd" clip-rule="evenodd" d="M51.7121 16.9152C51.7121 17.477 51.4384 17.8406 50.781 17.8406H50.7557C50.5263 17.8406 50.2852 17.7796 50.1353 17.6827C49.8745 17.5148 49.7041 17.2391 49.8761 16.947C50.0352 16.6765 50.593 16.6267 50.6753 17.0977C50.7043 17.262 50.7919 17.2407 50.7919 17.0888V15.9693C50.7919 15.6342 50.9984 15.4285 51.2528 15.4285C51.5071 15.4289 51.7137 15.6346 51.7137 15.889L51.7121 16.9152ZM51.2526 15.2834C51.5045 15.2834 51.7086 15.0797 51.7086 14.8278C51.7086 14.5758 51.5045 14.3717 51.2526 14.3717C51.0006 14.3717 50.7969 14.5758 50.7969 14.8278C50.7969 15.0797 51.0006 15.2834 51.2526 15.2834Z" fill="#2CB7C6"/>
<path fill-rule="evenodd" clip-rule="evenodd" d="M52.8608 17.754V16.5135C52.8608 16.4235 52.9167 16.2729 53.0204 16.2327C53.1264 16.1917 53.2229 16.2387 53.339 16.2821C53.722 16.428 54.0193 16.2351 54.0651 15.9851C54.1113 15.7352 53.9466 15.4949 53.6962 15.4487C53.3892 15.3908 53.1727 15.4873 52.9215 15.6814C52.9215 15.6814 52.9211 15.6814 52.9211 15.6818C52.903 15.6954 52.856 15.7364 52.8391 15.7505C52.7805 15.564 52.6057 15.4286 52.4003 15.4286C52.146 15.4286 51.9395 15.6352 51.9395 15.8891V17.754H52.8608Z" fill="#2CB7C6"/>
<path fill-rule="evenodd" clip-rule="evenodd" d="M53.6479 17.7791C53.8998 17.7791 54.104 17.5749 54.104 17.323C54.104 17.071 53.8998 16.8669 53.6479 16.8669C53.3959 16.8669 53.1914 17.071 53.1914 17.323C53.1914 17.5749 53.3959 17.7791 53.6479 17.7791Z" fill="#2CB7C6"/>
<path fill-rule="evenodd" clip-rule="evenodd" d="M42.4725 15.4286C42.1386 15.4282 41.8316 15.5656 41.613 15.7846C41.394 16.0028 41.2574 16.3094 41.2578 16.6433V17.7531H42.1796V17.2677V16.6622C42.18 16.5296 42.2121 16.4158 42.2656 16.3278C42.3198 16.2411 42.3902 16.19 42.4725 16.1896C42.5549 16.19 42.6248 16.2411 42.6795 16.3278C42.7329 16.4158 42.7651 16.5296 42.7651 16.6622V17.7531H43.6873V16.6433C43.6873 16.3094 43.5506 16.0028 43.3316 15.7846C43.113 15.5656 42.8064 15.4282 42.4725 15.4286Z" fill="#EB691F"/>
<path fill-rule="evenodd" clip-rule="evenodd" d="M44.6799 15.1299C44.7727 15.0375 44.8301 14.9089 44.8301 14.7675C44.8301 14.6256 44.7727 14.4979 44.6799 14.4046C44.5874 14.3122 44.4589 14.2548 44.3174 14.2548C44.176 14.2548 44.0478 14.3122 43.955 14.4046C43.8621 14.4979 43.8047 14.6256 43.8047 14.7675C43.8047 14.9089 43.8621 15.0375 43.955 15.1299L44.0683 15.2433C44.2571 15.4325 44.2704 15.4823 44.0908 15.662L43.9879 15.7652C43.9035 15.8496 43.8513 15.9661 43.8513 16.0947V17.7531H44.7835V16.0947C44.7835 15.9661 44.7313 15.8496 44.6469 15.7652L44.544 15.662C44.3644 15.4827 44.3777 15.4325 44.567 15.2433L44.6799 15.1299Z" fill="#EB691F"/>
<path fill-rule="evenodd" clip-rule="evenodd" d="M46.3322 17.0312C46.2776 17.1317 46.2072 17.1907 46.1249 17.1911C46.0425 17.1907 45.9726 17.1317 45.9183 17.0312C45.8645 16.9295 45.8327 16.7985 45.8327 16.6447C45.8327 16.4912 45.8645 16.3602 45.9183 16.2585C45.9726 16.158 46.0429 16.099 46.1249 16.0986C46.2072 16.099 46.2776 16.158 46.3322 16.2585C46.372 16.334 46.3997 16.4257 46.4114 16.5305H47.3348C47.3074 16.2412 47.1781 15.9792 46.9844 15.7855C46.7658 15.5666 46.4592 15.4299 46.1249 15.4299C45.791 15.4299 45.4848 15.5666 45.2662 15.7855C45.0472 16.0041 44.9102 16.3107 44.9102 16.6447C44.9102 16.979 45.0472 17.2856 45.2662 17.5042C45.4345 17.6725 45.7271 17.8602 46.1253 17.8602C46.4242 17.8602 46.7011 17.7501 46.9125 17.5701C47.0668 17.4395 47.2954 17.1763 47.3348 16.7592H46.4114C46.3997 16.864 46.372 16.9561 46.3322 17.0312Z" fill="#EB691F"/>
<path fill-rule="evenodd" clip-rule="evenodd" d="M49.7751 17.5923C49.7751 17.5613 49.7662 17.5328 49.7509 17.5083L49.2458 16.7444L49.5954 16.1095C49.7248 15.8901 49.6517 15.6077 49.4323 15.4779C49.2133 15.3485 48.9304 15.4216 48.801 15.641L48.3835 16.3876V15.8897C48.3835 15.635 48.1766 15.4285 47.9222 15.4285C47.6679 15.4285 47.4609 15.635 47.4609 15.8897V17.753H48.3835V17.0237L48.8701 17.753L49.6147 17.7526C49.7031 17.7526 49.7751 17.6811 49.7751 17.5923Z" fill="#EB691F"/>
<mask id="mask1" mask-type="alpha" maskUnits="userSpaceOnUse" x="54" y="15" width="1" height="1">
<path fill-rule="evenodd" clip-rule="evenodd" d="M54.3086 15.5717H54.937V15.9735H54.3086V15.5717Z" fill="white"/>
</mask>
<g mask="url(#mask1)">
<path fill-rule="evenodd" clip-rule="evenodd" d="M54.6189 15.5718H54.6281L54.778 15.8269L54.9275 15.5718H54.9367V16.0503H54.8801V15.7543L54.7832 15.9301H54.7732L54.6751 15.7543V16.0503H54.6189V15.5718ZM54.4022 15.653H54.3086V15.5804H54.5525V15.653H54.4589V16.0503H54.4022V15.653Z" fill="#2CB7C6"/>
</g>
</svg>
