<svg width="51" height="32" viewBox="0 0 51 32" fill="none" xmlns="http://www.w3.org/2000/svg">
<g id="logo">
<g id="Group 14">
<path id="Fill 2" fill-rule="evenodd" clip-rule="evenodd" d="M22.3597 16.4433C22.2363 16.3921 22.0339 16.1649 22.3705 15.5325L23.1523 13.8976C23.176 13.8482 23.1191 13.7867 23.0834 13.8283L22.4001 14.5162C22.0765 14.8541 21.5278 15.8035 21.4215 15.9792L20.5908 17.3529C20.6777 17.3501 20.7344 17.4434 20.6918 17.5193L19.9328 18.795C19.7471 19.1113 20.0804 19.3325 20.1256 19.2597C21.3188 17.3369 22.0128 17.4904 22.0128 17.4904L22.4111 16.5675C22.4342 16.5191 22.4093 16.4639 22.3597 16.4433Z" fill="white"/>
<path id="Fill 4" fill-rule="evenodd" clip-rule="evenodd" d="M34.8026 16.165L34.5424 16.9655L34.2823 16.165H33.4405L34.1215 15.6701L33.8614 14.8696L34.5424 15.3644L35.2234 14.8696L34.9633 15.6701L35.6443 16.165H34.8026ZM34.2823 9.29428L34.5424 8.49368L34.8026 9.29428H35.6443L34.9633 9.78907L35.2234 10.5896L34.5424 10.0949L33.8614 10.5897L34.1215 9.78907L33.4405 9.29428H34.2823ZM32.7703 7.97815V7.13632L31.9698 6.87619L32.7703 6.61612V5.77429L33.2652 6.4553L34.0657 6.19518L33.571 6.87625L34.0657 7.55726L33.2652 7.29713L32.7703 7.97815ZM30.9249 5.8318L30.6648 5.03125H29.8229L30.504 4.53645L30.2438 3.73585L30.9249 4.23064L31.6059 3.73585L31.3457 4.53645L32.0268 5.03125H31.185L30.9249 5.8318ZM34.0927 12.0486L34.8934 12.3087L35.3881 11.6277V12.4695L36.1887 12.7297L35.3881 12.9898V13.8316L34.8934 13.1506L34.0927 13.4107L34.5875 12.7297L34.0927 12.0486ZM28.5075 3.51877V4.36054L28.0127 3.67953L27.2121 3.9396L27.7069 3.25859L27.2121 2.57757L28.0127 2.8377L28.5075 2.15669V2.99846L29.3081 3.25859L28.5075 3.51877ZM25.4929 2.90794L25.753 3.70855L25.072 3.2137L24.391 3.70855L24.6511 2.90794L23.9701 2.41315H24.8118L25.072 1.61254L25.3321 2.41315H26.1739L25.4929 2.90794ZM22.1308 3.67953L21.636 4.36054V3.51877L20.8354 3.25859L21.636 2.99846V2.15669L22.1308 2.8377L22.9314 2.57757L22.4366 3.25859L22.9315 3.9396L22.1308 3.67953ZM19.4785 5.03125L19.2184 5.8318L18.9582 5.03125H18.1165L18.7975 4.53645L18.5374 3.73585L19.2184 4.23064L19.8994 3.73585L19.6393 4.53645L20.3203 5.03125H19.4785ZM17.3736 7.97815L16.8788 7.29713L16.0782 7.55726L16.573 6.87625L16.0782 6.19518L16.8788 6.4553L17.3736 5.77429V6.61612L18.1742 6.87619L17.3736 7.13632V7.97815ZM16.022 9.78907L16.2822 10.5897L15.6011 10.0949L14.9201 10.5896L15.1802 9.78907L14.4992 9.29428H15.341L15.6011 8.49368L15.8613 9.29428H16.703L16.022 9.78907ZM15.8613 16.165L15.6011 16.9655L15.341 16.165H14.4992L15.1802 15.6701L14.9201 14.8696L15.6011 15.3644L16.2822 14.8696L16.022 15.6701L16.703 16.165H15.8613ZM16.0508 13.4107L15.2502 13.1506L14.7554 13.8316V12.9898L13.9548 12.7297L14.7554 12.4695V11.6277L15.2502 12.3087L16.0508 12.0486L15.556 12.7297L16.0508 13.4107ZM25.071 0.377441C18.249 0.377441 12.7188 5.90773 12.7188 12.7297C12.7188 15.4766 13.617 18.0128 15.1337 20.0641C15.6519 19.8403 15.9398 19.5059 16.1455 19.2498L18.4454 16.3083C18.4938 16.2463 18.5571 16.1975 18.6294 16.1664L18.9756 16.0174L22.7572 11.2206L23.3056 10.7913L24.4324 9.22291C24.4615 9.18229 24.497 9.14664 24.5374 9.11726L25.0291 8.75981C25.1506 8.67152 25.3147 8.67014 25.4375 8.75645L26.034 9.17519C26.3506 9.39734 26.6072 9.69434 26.7809 10.0398L29.1702 14.2371C29.2235 14.3294 29.2624 14.3688 29.3577 14.4163C29.8262 14.6495 30.112 14.6911 30.7258 15.3571C31.012 15.6678 32.2657 17.0704 34.0235 19.2501C34.2656 19.5779 34.5786 19.854 35.0153 20.0547C36.5277 18.0051 37.4232 15.4724 37.4232 12.7297C37.4232 5.90773 31.8929 0.377441 25.071 0.377441Z" fill="white"/>
<path id="Fill 6" fill-rule="evenodd" clip-rule="evenodd" d="M29.5452 19.8686C29.6044 19.7823 29.7005 19.5457 29.5201 19.1072L28.9734 17.6372C28.8988 17.4495 29.0612 17.3357 29.1701 17.4591C29.1701 17.4591 30.2033 18.6504 30.4706 19.1478L30.9797 19.9933C31.4178 20.0215 32.6279 20.0546 33.7922 20.0546C33.6765 19.94 33.5685 19.8155 33.4676 19.6802C31.4811 17.2173 30.2214 15.8467 30.209 15.8332C29.8058 15.3958 29.6201 15.3113 29.3125 15.1714C29.2683 15.1513 29.2205 15.1294 29.1701 15.1058V15.4798C29.1701 15.5289 29.1122 15.555 29.0825 15.503L26.1613 10.3716L26.1531 10.3555C26.032 10.1145 25.8511 9.90527 25.6303 9.75024L25.3454 9.55029L23.952 12.7651C24.1691 12.7651 24.3151 12.9874 24.2289 13.1866L22.9414 16.1649H24.123C24.5798 16.1649 25.0322 16.254 25.4548 16.4271L25.7663 16.5547C25.7663 16.5547 24.8265 18.4885 24.8265 19.5068C24.8265 19.6925 24.8558 19.8796 24.9033 20.0546H27.0697L26.9695 19.4442C26.9695 19.4442 28.2731 19.7451 29.5452 19.8686Z" fill="white"/>
<path id="Fill 8" fill-rule="evenodd" clip-rule="evenodd" d="M12.8305 23.0017C12.8305 21.0124 10.7216 20.0546 8.21607 20.0546C5.53599 20.0546 3.07691 21.2426 2.17435 23.0846C1.92557 23.5727 1.79661 24.1163 1.79661 24.6687C1.78746 25.1477 1.91648 25.6175 2.17435 26.0134C2.56112 26.5846 3.25178 26.9438 4.26495 26.9438C5.50838 26.9438 6.49394 26.2621 6.49394 25.0741C6.49394 25.0741 6.51213 24.7428 6.12546 24.7428C5.81232 24.7428 5.72932 24.9636 5.73864 25.0741C5.78487 26.0043 5.23211 26.7505 4.24654 26.7505C3.14128 26.7505 2.68066 25.811 2.68066 24.8071C2.68066 22.7531 4.22808 21.39 5.83982 20.8007C6.59524 20.5152 7.38719 20.3769 8.19772 20.386C10.0214 20.386 11.5135 21.0861 11.5135 22.9651C11.5135 24.5306 10.1963 25.8661 8.62142 25.9859L8.68595 25.7742C9.00841 24.6228 9.40433 23.3611 10.049 22.4309C10.0858 22.3752 10.1503 22.2833 10.2241 22.1914L10.1321 22.0807C9.99364 22.1635 9.8649 22.2559 9.73566 22.357C6.71494 24.7149 6.62285 31.3461 2.59788 31.3461C2.45994 31.3461 2.3216 31.337 2.18344 31.3184C1.34525 31.1803 0.903087 30.6185 0.903087 29.8358C0.903087 29.6793 0.958419 29.4673 0.958419 29.3478C0.967788 29.1267 0.78355 28.9333 0.562387 28.9333H0.516479C0.157316 28.9333 0.00994799 29.2185 0.000634122 29.624C-0.0268115 30.7937 0.838827 31.4751 2.17435 31.6043C2.3216 31.6134 2.46903 31.6224 2.6256 31.6224C5.76614 31.6224 7.69108 29.2463 8.51086 26.3635C8.9253 26.3176 9.33996 26.2252 9.73566 26.1058C11.191 25.7002 12.8305 24.7243 12.8305 23.0017Z" fill="white"/>
<path id="Fill 10" fill-rule="evenodd" clip-rule="evenodd" d="M30.4488 25.9583C30.4213 26.5568 29.8963 28.0027 29.2793 28.8687C29.0307 29.2186 28.8187 29.3199 28.6345 29.3199C28.3765 29.3199 28.3029 29.1079 28.3398 28.7949C28.3949 28.2515 28.8464 26.9806 29.4726 26.1056C29.758 25.7095 29.9517 25.5437 30.1727 25.5437C30.3935 25.5437 30.4582 25.7279 30.4488 25.9583ZM18.2178 29.0067C18.0613 29.0067 17.9508 28.9516 17.9418 28.7489C17.9508 28.2054 18.4021 27.2385 18.9641 26.4646C19.3598 25.9304 19.8757 25.5345 20.4284 25.5345L19.7283 27.1002C19.1944 28.3069 18.6508 29.0067 18.2178 29.0067ZM11.3282 29.0067C11.1718 29.0067 11.0611 28.9516 11.0611 28.7489C11.0702 28.2054 11.5215 27.2385 12.0836 26.4646C12.4796 25.9304 12.9953 25.5345 13.5479 25.5345L12.8478 27.1002C12.3229 28.2794 11.7519 29.0067 11.3282 29.0067ZM42.7462 23.6924H41.6411L41.3922 24.2726L40.9594 25.2489H40.4436L40.2871 25.5806H40.8213L40.1764 27.0082C39.7162 28.012 38.9978 28.9975 38.5832 28.9975C38.491 28.9975 38.4359 28.9607 38.4359 28.8687C38.4359 28.7763 38.4634 28.6935 38.5647 28.4357C38.6937 28.1319 38.9056 27.6895 39.0621 27.3674C39.2923 26.8978 39.6608 26.1702 39.6608 25.8109C39.6608 25.4517 39.4307 25.1661 38.979 25.1661C38.4725 25.1661 38.0121 25.4701 37.5884 25.9119L37.8648 25.2489H36.8239L35.9767 27.183C35.6359 27.8646 34.9453 28.9975 34.5124 28.9975C34.4203 28.9975 34.3832 28.9422 34.3832 28.8502C34.3924 28.7673 34.4108 28.6935 34.4478 28.6106C34.4847 28.5276 34.9912 27.3397 34.9912 27.3397L35.9124 25.2305H34.7884L33.8953 27.2843C33.619 27.9199 32.9187 28.9975 32.4674 28.9975C32.3939 29.0067 32.3202 28.9515 32.3111 28.8687V28.8317C32.3111 28.7213 32.3939 28.5185 32.4584 28.3711L32.9282 27.3397L33.8953 25.2305H32.7808L32.5596 25.7095C32.3939 26.0318 32.1177 26.4093 31.6755 26.4093C31.4636 26.4093 31.3623 26.3267 31.3164 26.2436C31.2518 25.5344 30.8005 25.1568 30.1375 25.1568C29.2165 25.1568 28.5623 25.7002 28.1294 26.3635C27.8441 26.8238 27.6229 27.3119 27.4663 27.8277C27.0702 28.4817 26.6559 28.9884 26.3244 28.9884C26.2414 28.9884 26.186 28.9422 26.186 28.8317C26.186 28.7213 26.2967 28.4727 26.3335 28.3802L27.0611 26.833C27.2638 26.3544 27.4018 26.0412 27.4018 25.7279C27.4018 25.3963 27.1717 25.1568 26.7941 25.1568C26.2691 25.1568 25.698 25.461 25.2467 25.9583C25.2652 25.8753 25.2652 25.8015 25.2652 25.7186C25.2652 25.3503 25.081 25.1568 24.7032 25.1568C24.2244 25.1568 23.7271 25.4426 23.2758 25.9583L23.5706 25.2396H22.5572L21.7008 27.1738C21.2956 28.0857 20.6417 28.9884 20.2731 28.9884C20.1904 28.9884 20.1351 28.9422 20.1351 28.8317C20.1351 28.6568 20.3284 28.2238 20.4021 28.0489L21.5351 25.4794C21.6179 25.2861 21.0744 25.1661 20.3836 25.1661C19.6745 25.1661 18.9468 25.5162 18.4128 25.9674C18.0352 26.2804 17.7589 26.4371 17.6205 26.4371C17.547 26.4371 17.5193 26.4002 17.5193 26.3544C17.5193 26.1976 17.897 25.7554 17.897 25.4148C17.897 25.2583 17.8142 25.1568 17.6021 25.1568C17.1971 25.1568 16.7179 25.5437 16.368 25.9488L16.6627 25.2396H15.6681L14.8117 27.1738C14.4064 28.0857 13.7339 29.0345 13.3656 29.0345C13.2825 29.0345 13.2275 28.9884 13.2275 28.8778C13.2275 28.7028 13.4118 28.2794 13.513 28.058L14.6459 25.4794C14.7287 25.2861 14.1853 25.1661 13.4945 25.1661C12.4721 25.1661 11.4775 25.8569 10.9524 26.5661C10.3723 27.3304 9.97633 28.1409 9.96701 28.8042C9.95792 29.3383 10.2341 29.6699 10.7867 29.6699C11.4038 29.6699 11.9012 29.1818 12.1866 28.8133C12.1682 28.8871 12.159 28.9607 12.1499 29.0345C12.1499 29.4027 12.2972 29.6699 12.7485 29.6699C13.1444 29.6699 13.6695 29.3383 14.0932 28.8133L13.7525 29.5963H14.8299L15.8891 27.1926C16.2393 26.4093 16.6352 26.0043 16.7455 26.0043C16.7827 26.0043 16.8011 26.0228 16.8011 26.0503C16.8011 26.1333 16.6352 26.3544 16.6352 26.5568C16.6352 26.7595 16.7455 26.916 17.0406 26.916C17.2707 26.916 17.5285 26.8054 17.7589 26.6579C17.2155 27.3948 16.847 28.1685 16.847 28.8042C16.8379 29.3383 17.1143 29.6699 17.6668 29.6699C18.2469 29.6699 18.7903 29.1172 19.0851 28.7488C19.0758 28.8317 19.0667 28.9147 19.0667 29.0067C19.0667 29.3661 19.2694 29.6699 19.6839 29.6699C20.1441 29.6699 20.5127 29.3842 20.9732 28.8227L20.6325 29.5963H21.7378L22.7508 27.3028C23.1929 26.3081 23.7914 25.7738 24.0862 25.7738C24.16 25.7645 24.2244 25.82 24.2336 25.8938V25.9213C24.2244 26.0318 24.1877 26.1424 24.1415 26.2436L22.6863 29.6054H23.8192L24.8508 27.2659C25.2926 26.2621 25.781 25.7738 26.1493 25.7738C26.2598 25.7738 26.306 25.8293 26.306 25.9488C26.2967 26.0777 26.2598 26.207 26.2047 26.3176L25.2098 28.4357C25.1178 28.6384 25.0626 28.8593 25.0441 29.0803C25.0441 29.4027 25.2189 29.6884 25.7165 29.6884C26.3613 29.6884 26.8493 29.2002 27.4018 28.4727V28.6291C27.448 29.2093 27.7703 29.7159 28.627 29.7159C29.6399 29.7159 30.4598 29.0159 30.9569 27.9018C31.1415 27.5054 31.2702 27.0911 31.3164 26.6579C31.4269 26.7135 31.5557 26.741 31.6755 26.732C31.8413 26.732 32.0069 26.6951 32.1544 26.6121L31.9793 26.9897C31.7766 27.4134 31.5557 27.8831 31.3807 28.2794C31.2702 28.5094 31.2058 28.7673 31.1873 29.025C31.1873 29.421 31.4085 29.7068 31.8597 29.7068C32.3111 29.7068 32.9282 29.283 33.3702 28.6844H33.3794C33.3518 28.8042 33.3332 28.9331 33.3332 29.0619C33.3332 29.3936 33.4347 29.7068 33.8953 29.7068C34.4294 29.7068 34.8437 29.3199 35.249 28.8317L34.9083 29.6054H36.0226L36.9161 27.5791C37.4227 26.4371 37.9292 25.7464 38.3989 25.7464C38.4819 25.7464 38.5463 25.8015 38.5556 25.8845V25.9119C38.5556 26.1056 38.2792 26.6305 38.0307 27.1554C37.8002 27.6345 37.6252 28.0027 37.5057 28.2885C37.3949 28.5278 37.3306 28.7858 37.3122 29.0529C37.3122 29.4027 37.5057 29.6699 37.9386 29.6699C38.5832 29.6699 39.2371 29.0436 39.587 28.5737C39.5041 28.8042 39.4673 29.0345 39.4581 29.2736C39.4581 29.9185 39.845 30.2409 40.3881 30.2409C40.7476 30.2409 41.0973 30.1212 41.3922 29.9094C41.816 29.6146 42.1567 29.1725 42.4424 28.7673L42.2489 28.5829C41.9817 28.9607 41.687 29.3199 41.3831 29.541C41.2173 29.6793 41.024 29.7528 40.812 29.7621C40.5819 29.7621 40.4343 29.6422 40.4343 29.3477C40.4343 29.0529 40.5725 28.6568 40.7845 28.1225C40.7936 28.1134 41.0973 27.4318 41.3831 26.778C41.6225 26.225 41.8619 25.6911 41.908 25.5806H42.6356L42.7831 25.2489H42.0646L42.7462 23.6924Z" fill="white"/>
<path id="Fill 12" fill-rule="evenodd" clip-rule="evenodd" d="M47.6389 25.2489L48.6528 22.9063H47.4522L46.4382 25.2489H43.8861L43.4609 26.2312H46.0129L44.9988 28.5737H46.1995L47.2135 26.2312H49.7653L50.1905 25.2489H47.6389Z" fill="white"/>
</g>
</g>
</svg>
