<svg width="43" height="25" viewBox="0 0 43 25" fill="none" xmlns="http://www.w3.org/2000/svg">
<g id="logo">
<path id="Path" d="M33.0515 6.08283H26.7852C26.7038 6.08283 26.6627 6.04274 26.6421 5.96254L24.6761 0.166626L22.7512 5.96613C22.7306 6.04632 22.6896 6.08641 22.6081 6.08641H16.3418L21.3999 9.68425C21.4547 9.72352 21.5292 9.72352 21.584 9.68425C22.9779 8.84439 24.225 8.24511 26.8263 7.60788C24.4509 9.40716 22.1166 11.4456 20.1917 13.804C20.1346 13.8676 20.0925 13.9427 20.0684 14.0238L19.516 15.6828L24.5778 12.1029C24.6038 12.0744 24.6411 12.0581 24.6801 12.0581C24.7192 12.0581 24.7565 12.0744 24.7825 12.1029L29.8443 15.6828L27.9193 9.84678C27.8938 9.78602 27.9207 9.71636 27.9809 9.68711L33.0515 6.08283Z" fill="url(#paint0_linear)"/>
<path id="Shape" fill-rule="evenodd" clip-rule="evenodd" d="M42.6131 5.95159C42.6133 7.77192 41.2537 9.31055 39.4346 9.54879L42.9982 14.4892H39.8799L36.5396 9.54879V14.487H33.8477V2.15582H38.2199C40.9328 2.15582 42.6131 3.5019 42.6131 5.95159ZM38.2199 4.50771H36.5397V7.56101H38.2199C39.2323 7.56101 39.8799 6.91783 39.8799 5.93364C39.8799 5.03002 39.2352 4.50771 38.2199 4.50771Z" fill="white"/>
<path id="Path_2" d="M9.18164 2.15582V4.58652H11.9663V14.4892H14.7518V4.58652H17.5365V2.15582H9.18164Z" fill="white"/>
<path id="Path_3" d="M4.387 6.86777C3.56413 6.50542 3.25721 6.10194 3.25721 5.57863C3.25721 4.97375 3.77242 4.46993 4.59234 4.49014C5.31143 4.51035 5.86639 4.89363 6.25648 5.80022L8.61909 4.77237C7.96183 3.12016 6.62669 2.15582 4.46943 2.15582C2.18851 2.15582 0.503773 3.62398 0.503773 5.59884C0.503773 6.94861 1.18164 8.01616 2.78542 8.80221L4.55186 9.66838C5.53813 10.152 6.01065 10.5151 6.01065 11.2203C6.01065 11.9861 5.37399 12.5296 4.55186 12.5296C3.66864 12.5296 2.86712 12.046 2.49764 10.9582L0.03125 11.6634C0.606815 13.6982 2.3129 14.887 4.53052 14.887C6.93435 14.887 8.78396 13.3763 8.78396 11.2001C8.78396 9.52763 7.85952 8.41965 6.09235 7.63361L4.387 6.86777Z" fill="white"/>
<path id="Shape_2" fill-rule="evenodd" clip-rule="evenodd" d="M6.17974 19.6613H4.4082V24.4355H5.45818V22.5743H6.22358C7.22764 22.5743 7.98886 22.2309 7.98886 21.1115C7.98886 19.9782 7.16988 19.6613 6.17974 19.6613ZM6.15945 21.6813H5.45877V20.5515H5.99524C6.4016 20.5515 6.8998 20.6163 6.8998 21.1088C6.8998 21.5539 6.52963 21.6813 6.15945 21.6813Z" fill="white"/>
<path id="Shape_3" fill-rule="evenodd" clip-rule="evenodd" d="M11.1026 19.6613H9.18164L9.18236 24.4355H10.274V22.527H10.8134L11.8516 24.4355H13.1601L11.9007 22.4197C12.6006 22.2957 12.9714 21.7789 12.9714 21.1115C12.9714 19.9984 12.1147 19.6613 11.1026 19.6613ZM10.9175 21.6374H10.2733V20.5515H10.9876C11.386 20.5515 11.8342 20.626 11.8342 21.1046C11.8342 21.6235 11.3166 21.6374 10.9175 21.6374Z" fill="white"/>
<path id="Path_4" d="M13.9551 19.6613H17.4067V20.6323H15.0745V21.5225H17.2777V22.4935H15.0745V23.4645H17.5357V24.4355H13.9551V19.6613Z" fill="white"/>
<path id="Path_5" d="M19.1289 19.6613H20.7724L21.9074 22.7782H21.9211L23.0625 19.6648H24.6988V24.4355H23.6127V20.7736H23.5991L22.3044 24.432H21.4751L20.2294 20.7736H20.215V24.432H19.1289V19.6613Z" fill="white"/>
<path id="Path_6" d="M25.8906 19.6613H27.0842V24.4355H25.8906V19.6613Z" fill="white"/>
<path id="Path_7" d="M32.6557 22.7603C32.6557 23.9503 31.9082 24.8334 30.4716 24.8334C29.0351 24.8334 28.2793 23.9503 28.2793 22.7603V19.6613H29.4228V22.7176C29.4228 23.3372 29.8628 23.8075 30.4716 23.8075C31.0805 23.8075 31.5121 23.3372 31.5121 22.7176V19.6613H32.6557V22.7603Z" fill="white"/>
<path id="Path_8" d="M34.2461 19.6613H35.8871L37.0228 22.7782H37.0364L38.1794 19.6648H39.816V24.4355H38.7292V20.7736H38.7155L37.4201 24.432H36.5909L35.3437 20.7736H35.3293V24.432H34.2461V19.6613Z" fill="white"/>
</g>
<defs>
<linearGradient id="paint0_linear" x1="25.7269" y1="20.2561" x2="35.2325" y2="7.43325" gradientUnits="userSpaceOnUse">
<stop offset="0.28" stop-color="#FA1660"/>
<stop offset="0.78" stop-color="#FF7D17"/>
</linearGradient>
</defs>
</svg>
