<svg width="80" height="12" viewBox="0 0 80 12" fill="none" xmlns="http://www.w3.org/2000/svg">
<path fill-rule="evenodd" clip-rule="evenodd" d="M15.9219 11.3638L18.2638 11.3608L19.1406 9.61433L23.9813 9.60828L24.8646 11.3528L27.2373 11.3502L21.5501 0.117004L15.9219 11.3638ZM21.5556 4.81804L22.9431 7.55828L20.1751 7.56181L21.5556 4.81804Z" fill="#FEFEFE"/>
<path fill-rule="evenodd" clip-rule="evenodd" d="M9.00391 0.183867L9.00643 2.2359L12.3214 2.23186L12.3325 11.3682L14.6064 11.3652L14.5953 2.22884L17.9098 2.22481L17.9073 0.173279L9.00391 0.183867Z" fill="#FEFEFE"/>
<path fill-rule="evenodd" clip-rule="evenodd" d="M31.6851 5.07329L30.0304 5.0753L30.0264 2.20952L31.6816 2.2075C32.9022 2.20599 33.5748 2.69807 33.5758 3.63283C33.5768 4.55902 32.87 5.07177 31.6851 5.07329ZM35.8648 3.57187C35.8638 2.5872 35.5064 1.74219 34.8308 1.12708C34.1315 0.489794 33.1402 0.154511 31.964 0.15552L27.75 0.161066L27.7641 11.3489L30.0375 11.3464L30.0324 7.26704L31.6529 7.26502L34.0079 11.3419L36.6151 11.3383L33.951 6.71244C35.6233 5.92692 35.8659 4.40075 35.8648 3.57187Z" fill="#FEFEFE"/>
<path fill-rule="evenodd" clip-rule="evenodd" d="M46.8275 0.137329L37.5832 0.148421L37.5858 2.20045L42.8716 2.19339L37.1426 11.3378L46.7236 11.3257L46.7211 9.27365L41.0984 9.28071L46.8275 0.137329Z" fill="#FEFEFE"/>
<mask id="mask0" mask-type="alpha" maskUnits="userSpaceOnUse" x="0" y="0" width="9" height="12">
<path fill-rule="evenodd" clip-rule="evenodd" d="M0 0H8.6268V11.568H0V0Z" fill="white"/>
</mask>
<g mask="url(#mask0)">
<path fill-rule="evenodd" clip-rule="evenodd" d="M5 4.75277C3.16477 4.32018 2.51286 4.02321 2.51185 3.1777C2.51084 2.47335 3.16174 2.02362 4.13179 2.02261C5.61309 2.02059 6.94111 3.04157 7.29908 3.34509L8.24644 1.41709C7.06564 0.474261 5.71241 -0.00219347 4.16003 -0.00017673C1.868 0.00284838 0.268226 1.37826 0.270747 3.33601C0.273268 5.47678 1.65423 6.21138 4.03902 6.78362C6.03357 7.24142 6.38499 7.63771 6.386 8.29668C6.3865 9.07766 5.68922 9.54403 4.60976 9.54555C3.27619 9.54706 2.18514 9.03884 0.931229 7.87317L0 9.87327C1.3013 10.987 2.88545 11.5698 4.56539 11.5683C7.03539 11.5648 8.62962 10.2322 8.6271 8.1061C8.62458 6.35658 7.57386 5.37493 5 4.75277Z" fill="#FEFEFE"/>
</g>
<path fill-rule="evenodd" clip-rule="evenodd" d="M52.1552 6.03945C53.7868 6.03743 54.8738 5.06032 54.8718 3.38088C54.8693 1.70094 53.7802 0.75761 52.1482 0.76013L49.1886 0.76366L49.1952 6.04348L52.1552 6.03945ZM48.5 0.124842L52.18 0.120304C54.1317 0.117783 55.5893 1.34749 55.5914 3.37986C55.5939 5.41172 54.1398 6.67722 52.1876 6.67974L49.1963 6.68277L49.2023 11.3228L48.5141 11.3233L48.5 0.124842Z" fill="#FEFEFE"/>
<path fill-rule="evenodd" clip-rule="evenodd" d="M56.6914 0.114152L57.3791 0.113647L57.3927 10.6723L62.7356 10.6662L62.7366 11.3055L56.705 11.3136L56.6914 0.114152Z" fill="#FEFEFE"/>
<path fill-rule="evenodd" clip-rule="evenodd" d="M68.2591 0.900026C68.2591 0.900026 68.0196 1.7642 67.8446 2.24469L66.1385 6.79041L70.4104 6.78487L68.7088 2.24317C68.5318 1.76369 68.2908 0.900026 68.2908 0.900026H68.2591ZM70.651 7.4241L65.899 7.43015L64.4646 11.3038L63.7285 11.3048L67.9062 0.100313L68.6423 0.0993042L72.8477 11.2932L72.1116 11.2942L70.651 7.4241Z" fill="#FEFEFE"/>
<path fill-rule="evenodd" clip-rule="evenodd" d="M75.5281 6.42632L71.7129 0.095777L72.4964 0.0947687L75.158 4.50689C75.4786 5.0504 75.8477 5.76987 75.8477 5.76987H75.8795C75.8795 5.76987 76.2309 5.04989 76.5657 4.50487L79.2157 0.0867017L79.9997 0.0856934L76.2163 6.42581L76.2223 11.2892L75.5341 11.2897L75.5281 6.42632Z" fill="#FEFEFE"/>
</svg>
