<svg width="53" height="22" viewBox="0 0 53 22" fill="none" xmlns="http://www.w3.org/2000/svg">
<path d="M24.7464 10.1804C25.4973 10.1804 26.2394 10.3395 26.9284 10.631C27.6352 10.9314 28.2536 11.3996 28.7395 11.9826C29.2254 12.6187 29.5699 13.3431 29.7643 14.1117C29.9056 14.6683 29.9763 15.2513 29.9674 15.8256C29.9674 16.0906 29.9498 16.391 29.9321 16.7532C29.9321 16.9652 29.7554 17.133 29.5434 17.1242C29.5346 17.1242 29.5257 17.1242 29.5169 17.1242H22.3346C22.5731 17.6984 22.9795 18.1843 23.4919 18.52C24.0131 18.8734 24.6315 19.0677 25.2588 19.0589C26.1069 19.0766 26.9284 18.7409 27.5203 18.1313C27.591 18.0518 27.697 18.0076 27.803 18.0076H27.8649C27.9974 18.0165 28.1122 18.096 28.1741 18.2108L29.1105 19.7921C29.1547 19.8628 29.1724 19.9423 29.1724 20.0218C29.1635 20.1455 29.1017 20.2604 29.0045 20.331C27.9444 21.1791 26.6281 21.6297 25.2676 21.6032C24.4548 21.612 23.6598 21.453 22.9089 21.135C22.1844 20.8346 21.5395 20.3929 21.0006 19.8275C19.9582 18.785 19.3663 17.3627 19.3751 15.8786C19.3663 14.5976 19.7815 13.3431 20.5589 12.3272C21.0448 11.6823 21.6632 11.1522 22.37 10.7635C23.0944 10.366 23.916 10.1628 24.7464 10.1628V10.1804ZM22.317 14.6771H27.2995C27.1493 14.0675 26.8931 13.6082 26.5309 13.299C26.098 12.9367 25.4885 12.7601 24.711 12.7601C24.181 12.7512 23.6598 12.9191 23.2446 13.2459C22.794 13.617 22.476 14.1205 22.3346 14.6859L22.317 14.6771Z" fill="#F5F5F5"/>
<path d="M31.2835 20.2515V10.7281H30.8595C30.5856 10.7281 30.4531 10.5956 30.4531 10.3129V8.55491C30.4531 8.27221 30.5856 8.1397 30.8595 8.1397H32.7235C33.0327 8.13086 33.3243 8.26338 33.5363 8.48423C33.7571 8.69626 33.8808 8.99662 33.872 9.30582V18.8115H34.2784C34.5522 18.8115 34.6847 18.9529 34.6847 19.2356V20.9936C34.6847 21.2674 34.5522 21.4088 34.2784 21.4088H32.4497C32.1405 21.4176 31.8401 21.2939 31.6281 21.0731C31.4072 20.8434 31.2835 20.5519 31.2835 20.2515Z" fill="#F5F5F5"/>
<path d="M36.1947 20.2515V10.7281H35.7707C35.4968 10.7281 35.3555 10.5956 35.3555 10.3129V8.55491C35.3555 8.27221 35.4968 8.1397 35.7707 8.1397H37.6259C37.9351 8.13086 38.2266 8.26338 38.4386 8.48423C38.6595 8.69626 38.7832 8.99662 38.7743 9.30582V18.8115H39.1807C39.4546 18.8115 39.5959 18.9529 39.5959 19.2356V20.9936C39.5959 21.2674 39.4634 21.4088 39.1807 21.4088H37.3609C37.0517 21.4176 36.7513 21.2939 36.5393 21.0731C36.3096 20.8434 36.1859 20.5519 36.1947 20.2515Z" fill="#F5F5F5"/>
<path d="M46.1174 10.1805C47.6811 10.154 49.1829 10.7636 50.2961 11.859C51.4533 12.981 52.0364 14.3238 52.0276 15.8963C52.0452 17.4335 51.418 18.9 50.2961 19.9424C49.1829 21.0379 47.6811 21.6386 46.1263 21.6033C44.4919 21.6033 43.1049 21.0467 41.9565 19.9424C40.8345 18.9 40.2073 17.4246 40.225 15.8963C40.225 14.3326 40.7992 12.9898 41.9565 11.859C43.0608 10.7548 44.5626 10.154 46.1174 10.1805ZM46.1263 12.7513C45.287 12.7425 44.4831 13.0693 43.8824 13.6612C42.6456 14.845 42.6102 16.8062 43.794 18.043C43.8205 18.0695 43.8559 18.1049 43.8824 18.1314C45.1192 19.3593 47.1157 19.3593 48.3525 18.1314C49.5893 16.9653 49.6423 15.0217 48.4762 13.7849C48.4409 13.7407 48.3967 13.7054 48.3525 13.6612C47.7606 13.0693 46.9567 12.7425 46.1263 12.7513Z" fill="#F5F5F5"/>
<path d="M18.9787 21.6032L16.4433 18.3787C19.8356 14.4739 19.4292 8.55497 15.5245 5.15377C11.6197 1.75257 5.69193 2.17662 2.29957 6.08137C-1.0928 9.98612 -0.686419 15.9051 3.21833 19.3063C4.92335 20.7905 7.11425 21.6032 9.37583 21.6032H18.9787ZM2.91797 12.23C2.91797 8.66098 5.80678 5.75451 9.37583 5.75451C12.9449 5.75451 15.8514 8.64331 15.8514 12.2124C15.8514 15.7814 12.9625 18.6879 9.3935 18.6879H9.38466C5.81561 18.6879 2.91797 15.7991 2.91797 12.23Z" fill="#F5F5F5"/>
<path d="M7.56445 9.00555L13.1654 12.2389L7.56445 15.4811V9.00555Z" fill="#03A4D9"/>
<path d="M25.7812 1.81453H27.018V5.29523H27.8485V1.81453H29.0764V1.03711H25.7812V1.81453Z" fill="#F5F5F5"/>
<path d="M30.7817 1.03711H29.9336V5.2864H30.7817V1.03711Z" fill="#F5F5F5"/>
<path d="M34.8272 3.81991L32.7512 1.03711H31.9473V5.29523H32.7689V2.52127L34.8537 5.29523H35.6577V1.03711H34.8272V3.81991Z" fill="#F5F5F5"/>
<path d="M39.05 3.85515H39.8451C39.7126 4.3322 39.3151 4.59723 38.7497 4.59723C37.7956 4.59723 37.3627 3.85515 37.3627 3.16607C37.3627 2.477 37.8309 1.71725 38.6967 1.71725C39.1826 1.71725 39.5889 1.96461 39.6773 2.32682L39.7038 2.4505H40.5254L40.4989 2.26498C40.384 1.49639 39.6154 0.948669 38.679 0.948669C37.2744 0.948669 36.5234 2.09713 36.5234 3.18374C36.5234 4.27036 37.2832 5.38348 38.7232 5.38348C39.748 5.38348 40.4989 4.80042 40.7021 3.86398H41.1526V3.08657H39.0412L39.05 3.85515Z" fill="#F5F5F5"/>
<path d="M52.0899 1.03711L51.2418 2.71562L50.1905 1.03711H49.2188L50.8089 3.58138L49.9432 5.29523H50.8619L52.9998 1.03711H52.0899Z" fill="#F5F5F5"/>
<path d="M44.2259 3.67856C44.8973 3.28102 45.127 2.40642 44.7207 1.73502C44.4645 1.30214 44.0051 1.04594 43.5104 1.03711H41.8672V5.2864H42.6976V3.88175H43.3867L44.0316 5.29523H44.968L44.2259 3.67856ZM43.5015 3.0955H42.6888V1.81453H43.4927C43.8461 1.81453 44.1376 2.09722 44.1376 2.45059C44.1464 2.80397 43.8549 3.0955 43.5015 3.0955Z" fill="#F5F5F5"/>
<path d="M47.7789 1.07245L47.7701 1.03711H47.0368L45.5703 5.2864H46.4802L46.7983 4.34113H48.0439L48.3619 5.2864H49.263L47.7789 1.07245ZM46.9485 3.65206L47.399 2.30041L47.8496 3.65206H46.9485Z" fill="#F5F5F5"/>
<path d="M24.2174 2.84867L23.4488 2.67198C23.1308 2.59247 22.9718 2.45113 22.9718 2.2126C22.9718 1.91223 23.2368 1.71788 23.6343 1.71788C24.0761 1.71788 24.3146 1.93874 24.4118 2.2126H25.2775C25.145 1.49702 24.5884 0.993469 23.6255 0.993469C22.7421 0.993469 22.1148 1.53236 22.1148 2.29211C22.1148 2.98118 22.5831 3.30805 23.1838 3.44057L23.9347 3.60842C24.2969 3.68792 24.4471 3.82927 24.4471 4.07663C24.4471 4.41234 24.1644 4.60669 23.7404 4.60669C23.3163 4.60669 23.0159 4.43884 22.9099 4.0678H22C22.1413 4.87172 22.8039 5.3311 23.7492 5.3311C24.6415 5.3311 25.3129 4.83638 25.3129 4.02363C25.3129 3.39639 24.8976 3.00769 24.2174 2.84867Z" fill="#F5F5F5"/>
</svg>
