<svg width="63" height="18" viewBox="0 0 63 18" fill="none" xmlns="http://www.w3.org/2000/svg">
<path d="M8.4749 0.533447C8.53904 1.3857 9.18052 5.76609 12.3879 9.78908C13.0661 10.6322 13.8725 11.4478 14.8072 12.2175L8.4749 18L2.14258 12.2175C3.07731 11.4569 3.88374 10.6322 4.56187 9.78908C7.76927 5.76609 8.41075 1.3857 8.4749 0.533447Z" fill="#008CCB"/>
<path d="M15.9984 5.95853L8.47481 0.533447L0.951172 5.95853C2.41741 7.19567 3.60873 8.49696 4.56178 9.78908C7.7142 14.0137 8.4015 17.0561 8.47481 17.9909C8.53896 17.0561 9.23542 14.0137 12.3878 9.78908C13.3409 8.49696 14.5322 7.19567 15.9984 5.95853Z" fill="#2EB6E8"/>
<path d="M8.4749 17.9909L2.14258 12.2176C3.07731 11.457 3.88374 10.6322 4.56187 9.78912C7.71429 14.0137 8.41075 17.0562 8.4749 17.9909Z" fill="url(#paint0_linear)"/>
<path d="M8.47461 0.533447C8.53876 1.3857 9.18024 5.76609 12.3876 9.78908C13.3499 8.50612 14.532 7.19567 15.9982 5.95853L8.47461 0.533447Z" fill="url(#paint1_linear)"/>
<path d="M24.3652 4.16237H26.1156V9.0926H27.2977V4.16237H29.0389V3.05353H24.3652V4.16237Z" fill="#4A4A49"/>
<path d="M31.4583 3.05353H30.2578V9.0926H31.4583V3.05353Z" fill="#4A4A49"/>
<path d="M37.2037 7.00321L34.2529 3.05353H33.1074V9.0926H34.2804V5.16125L37.2404 9.0926H38.3767V3.05353H37.2037V7.00321Z" fill="#4A4A49"/>
<path d="M43.1886 7.05813H44.3158C44.1233 7.73627 43.5552 8.11199 42.7579 8.11199C41.4108 8.11199 40.7968 7.05813 40.7968 6.08675C40.7968 5.08787 41.4566 4.02485 42.6846 4.02485C43.381 4.02485 43.9492 4.38225 44.0775 4.88627L44.1233 5.06038H45.2963L45.2597 4.80379C45.0947 3.71327 44.0042 2.92517 42.6754 2.92517C40.6868 2.92517 39.6055 4.55636 39.6055 6.09591C39.6055 7.64463 40.6777 9.22083 42.7304 9.22083C44.1783 9.22083 45.2505 8.39607 45.5529 7.05813H46.1944V5.95845H43.1978V7.05813H43.1886Z" fill="#4A4A49"/>
<path d="M61.6997 3.06262L60.4992 5.4361L59.0055 3.06262H57.6309L59.8852 6.66407L58.6572 9.09253H59.9677L63.001 3.06262H61.6997Z" fill="#4A4A49"/>
<path d="M50.5285 6.8016C51.1333 6.43504 51.509 5.7844 51.509 5.06961C51.509 3.96993 50.6109 3.06269 49.5113 3.05353H47.1836V9.08344H48.3566V7.09485H49.3371L50.2535 9.10176H51.5731L50.5285 6.8016ZM49.5113 5.98601H48.3566V4.16237H49.5021C49.9969 4.16237 50.4093 4.57475 50.4093 5.06961C50.4093 5.57363 50.0061 5.97684 49.5113 5.98601Z" fill="#4A4A49"/>
<path d="M55.5782 3.10851L55.5599 3.05353H54.5152L52.4258 9.0926H53.7087L54.1578 7.74549H55.9264L56.3755 9.0926H57.6584L55.5782 3.10851ZM54.4052 6.75578L55.0375 4.84051L55.6698 6.75578H54.4052Z" fill="#4A4A49"/>
<path d="M22.1386 5.62854L21.0481 5.37195C20.599 5.26198 20.3791 5.06037 20.3791 4.7213C20.3791 4.2906 20.7548 4.02484 21.323 4.02484C21.9461 4.02484 22.2852 4.33642 22.4227 4.73047H23.6598C23.4674 3.72243 22.6793 2.99847 21.3138 2.99847C20.0584 2.99847 19.1695 3.75909 19.1695 4.84044C19.1695 5.82098 19.8293 6.27918 20.6815 6.47163L21.7537 6.70989C22.2669 6.82902 22.4777 7.02147 22.4777 7.37886C22.4777 7.85539 22.0744 8.13031 21.4788 8.13031C20.8923 8.13031 20.4616 7.88288 20.2966 7.36053H19.0137C19.2153 8.49687 20.1592 9.15668 21.4879 9.15668C22.7526 9.15668 23.7056 8.46021 23.7056 7.29639C23.7056 6.39832 23.11 5.84848 22.1386 5.62854Z" fill="#4A4A49"/>
<path d="M20.2411 13.977V15.5715H19.3613V11.7868H20.2411V13.3905L21.4599 11.7868H22.5137L21.02 13.6746L22.5137 15.5624H21.4599L20.2411 13.977Z" fill="#008CCB"/>
<path d="M26.849 11.796H28.4344C29.2683 11.796 29.809 12.4283 29.809 13.1614C29.809 13.6929 29.5249 14.1603 29.0575 14.3802L29.8181 15.5715H28.8009L28.132 14.5268H27.7196V15.5715H26.8398V11.796H26.849ZM28.9292 13.1614C28.9292 12.8132 28.691 12.5108 28.3244 12.5108H27.7288V13.8212H28.3244C28.691 13.8212 28.9292 13.5188 28.9292 13.1614Z" fill="#008CCB"/>
<path d="M33.8945 13.6929C33.8945 12.6573 34.6368 11.7043 35.9014 11.7043C37.1569 11.7043 37.8992 12.6573 37.8992 13.6929C37.8992 14.7284 37.1569 15.6815 35.9014 15.6815C34.646 15.6723 33.8945 14.7284 33.8945 13.6929ZM37.0103 13.6929C37.0103 13.0697 36.5887 12.4924 35.9014 12.4924C35.2141 12.4924 34.7926 13.0697 34.7926 13.6929C34.7926 14.316 35.205 14.8934 35.9014 14.8934C36.5887 14.8842 37.0103 14.3069 37.0103 13.6929Z" fill="#008CCB"/>
<path d="M39.3667 13.977V15.5715H38.4961V11.7868H39.3667V13.3905L40.5855 11.7868H41.6393L40.1456 13.6746L41.6393 15.5624H40.5855L39.3667 13.977Z" fill="#008CCB"/>
<path d="M42.9682 12.5016V13.363H44.3978V14.0503H42.9682V14.8842H44.3978V15.5898H42.0977V11.8051H44.407V12.5107H42.9682V12.5016Z" fill="#008CCB"/>
<path d="M25.3726 15.5807L25.0976 14.7193H24.0163L23.7414 15.5807H22.8066L24.1537 11.8051H24.9602L26.3256 15.5807H25.3726ZM24.557 12.8773L24.1904 14.1144H24.9144L24.557 12.8773Z" fill="#008CCB"/>
<path d="M32.8042 15.5807L32.5293 14.7193H31.4479L31.173 15.5807H30.2383L31.5854 11.8051H32.3918L33.7573 15.5807H32.8042ZM31.9886 12.8773L31.622 14.1144H32.346L31.9886 12.8773Z" fill="#008CCB"/>
<defs>
<linearGradient id="paint0_linear" x1="7.23385" y1="13.4778" x2="4.9122" y2="14.8182" gradientUnits="userSpaceOnUse">
<stop offset="0.0277478" stop-color="#426EB1"/>
<stop offset="0.3839" stop-color="#2B7ABC"/>
<stop offset="1" stop-color="#008CCB"/>
</linearGradient>
<linearGradient id="paint1_linear" x1="9.62452" y1="5.65596" x2="12.8037" y2="3.70008" gradientUnits="userSpaceOnUse">
<stop stop-color="#15A6DD"/>
<stop offset="0.143" stop-color="#1CAADF"/>
<stop offset="0.609" stop-color="#2AB3E6"/>
<stop offset="1" stop-color="#2EB6E8"/>
</linearGradient>
</defs>
</svg>
