<svg style="position: absolute; width: 0; height: 0; overflow: hidden;" version="1.1" xmlns="http://www.w3.org/2000/svg" xmlns:xlink="http://www.w3.org/1999/xlink">
<defs>
<symbol id="icon-angle-left" viewBox="0 0 20 32">
<title>angle-left</title>
<path d="M18.966 5.206l-11.274 11.298 11.274 11.298-3.471 3.471-14.769-14.769 14.769-14.769z"></path>
</symbol>
<symbol id="icon-angle-right" viewBox="0 0 20 32">
<title>angle-right</title>
<path d="M0.726 27.803l11.274-11.298-11.274-11.298 3.471-3.471 14.769 14.769-14.769 14.769z"></path>
</symbol>
<symbol id="icon-arrow-right" viewBox="0 0 47 32">
<title>arrow-right</title>
<path d="M35.159 13.091l-8.727-8.727 4.114-4.114 15.75 15.75-15.75 15.75-4.114-4.114 8.727-8.727h-33.573v-5.818z"></path>
</symbol>
<symbol id="icon-arrow-left" viewBox="0 0 32 32">
<path d="M30 14c1.105 0 2 0.895 2 2 0 1.026-0.772 1.871-1.767 1.987l-0.233 0.013h-28c-1.105 0-2-0.895-2-2 0-1.026 0.772-1.871 1.767-1.987l0.233-0.013h28z"></path>
<path d="M14.586 0.586c0.781-0.781 2.047-0.781 2.828 0 0.721 0.721 0.776 1.855 0.166 2.64l-0.166 0.188-12.584 12.586 12.584 12.586c0.721 0.721 0.776 1.855 0.166 2.64l-0.166 0.188c-0.721 0.721-1.855 0.776-2.64 0.166l-0.188-0.166-14-14c-0.721-0.721-0.776-1.855-0.166-2.64l0.166-0.188 14-14z"></path>
</symbol>
<symbol id="icon-briefcase" viewBox="0 0 35 32">
<path d="M30.4 6.4h-25.6c-2.651 0-4.8 2.149-4.8 4.8v16c0 2.651 2.149 4.8 4.8 4.8h25.6c2.651 0 4.8-2.149 4.8-4.8v-16c0-2.651-2.149-4.8-4.8-4.8zM4.8 9.6h25.6c0.884 0 1.6 0.716 1.6 1.6v16c0 0.884-0.716 1.6-1.6 1.6h-25.6c-0.884 0-1.6-0.716-1.6-1.6v-16c0-0.884 0.716-1.6 1.6-1.6z"></path>
<path d="M20.8 0c1.273 0 2.494 0.506 3.394 1.406 0.825 0.825 1.319 1.92 1.395 3.077l0.010 0.317v25.6c0 0.884-0.716 1.6-1.6 1.6-0.821 0-1.497-0.618-1.589-1.413l-0.011-0.187v-25.6c0-0.424-0.169-0.831-0.469-1.131-0.25-0.25-0.574-0.409-0.921-0.455l-0.21-0.014h-6.4c-0.424 0-0.831 0.169-1.131 0.469-0.25 0.25-0.409 0.574-0.455 0.921l-0.014 0.21v25.6c0 0.884-0.716 1.6-1.6 1.6-0.821 0-1.497-0.618-1.589-1.413l-0.011-0.187v-25.6c0-1.273 0.506-2.494 1.406-3.394 0.825-0.825 1.92-1.319 3.077-1.395l0.317-0.010h6.4z"></path>
</symbol>
<symbol id="icon-home" viewBox="0 0 29 32">
<path d="M13.652 0.306l-13.091 10.182c-0.354 0.276-0.562 0.699-0.562 1.148v16c0 1.157 0.46 2.267 1.278 3.085s1.928 1.278 3.086 1.278h20.364c1.157 0 2.267-0.46 3.086-1.278s1.278-1.928 1.278-3.086v-16c0-0.449-0.207-0.873-0.562-1.148l-13.091-10.182c-0.525-0.409-1.261-0.409-1.786 0zM14.545 3.296l11.636 9.052v15.289c0 0.386-0.153 0.756-0.426 1.029s-0.643 0.426-1.029 0.426h-20.364c-0.386 0-0.756-0.153-1.028-0.426l-0.126-0.144c-0.193-0.252-0.3-0.563-0.3-0.884v-15.29l11.636-9.050z"></path>
<path d="M18.909 14.545c0.746 0 1.361 0.562 1.445 1.285l0.010 0.17v14.545c0 0.803-0.651 1.455-1.455 1.455-0.746 0-1.361-0.561-1.445-1.285l-0.010-0.17v-13.091h-5.818v13.091c0 0.746-0.562 1.361-1.285 1.445l-0.17 0.010c-0.746 0-1.361-0.561-1.445-1.285l-0.010-0.17v-14.545c0-0.746 0.562-1.361 1.285-1.445l0.17-0.010h8.727z"></path>
</symbol>
<symbol id="icon-inbox" viewBox="0 0 39 32">
<path d="M12.444 14.222c0.52 0 1.010 0.227 1.345 0.616l0.134 0.176 3.027 4.542h5.207l3.029-4.542c0.288-0.433 0.75-0.714 1.259-0.778l0.221-0.014h10.667c0.982 0 1.778 0.796 1.778 1.778 0 0.912-0.686 1.663-1.57 1.766l-0.207 0.012h-9.716l-3.027 4.542c-0.288 0.433-0.75 0.714-1.259 0.778l-0.221 0.014h-7.111c-0.52 0-1.010-0.227-1.345-0.616l-0.134-0.176-3.029-4.542h-9.714c-0.912 0-1.663-0.686-1.766-1.57l-0.012-0.207c0-0.912 0.686-1.663 1.57-1.766l0.207-0.012h10.667z"></path>
<path d="M28.019 0h-16.926c-0.992 0.001-1.965 0.278-2.808 0.801s-1.524 1.271-1.965 2.159l-6.131 12.244c-0.124 0.247-0.188 0.52-0.188 0.796v10.667c0 1.414 0.562 2.771 1.562 3.771s2.357 1.562 3.771 1.562h28.444c1.414 0 2.771-0.562 3.771-1.562s1.562-2.357 1.562-3.771v-10.667c0-0.276-0.064-0.549-0.188-0.796l-6.133-12.249c-0.439-0.884-1.12-1.631-1.963-2.154s-1.816-0.8-2.808-0.801zM11.094 3.556h16.923c0.33 0 0.654 0.093 0.935 0.267l0.162 0.113c0.207 0.162 0.375 0.369 0.493 0.606l5.948 11.879v10.245c0 0.471-0.187 0.924-0.521 1.257s-0.786 0.521-1.257 0.521h-28.444c-0.471 0-0.924-0.187-1.257-0.521l-0.154-0.176c-0.236-0.309-0.366-0.688-0.366-1.081v-10.249l5.945-11.871c0.15-0.301 0.377-0.55 0.658-0.725s0.605-0.267 0.936-0.267z"></path>
</symbol>
<symbol id="icon-smartphone" viewBox="0 0 23 32">
<path d="M18.909 0h-14.545c-2.41 0-4.364 1.954-4.364 4.364v23.273c0 2.41 1.954 4.364 4.364 4.364h14.545c2.41 0 4.364-1.954 4.364-4.364v-23.273c0-2.41-1.954-4.364-4.364-4.364zM4.364 2.909h14.545c0.803 0 1.455 0.651 1.455 1.455v23.273c0 0.803-0.651 1.455-1.455 1.455h-14.545c-0.803 0-1.455-0.651-1.455-1.455v-23.273c0-0.803 0.651-1.455 1.455-1.455z"></path>
<path d="M11.651 23.273c0.803 0 1.455 0.651 1.455 1.455 0 0.746-0.562 1.361-1.285 1.445l-0.184 0.010c-0.803 0-1.455-0.651-1.455-1.455 0-0.746 0.562-1.361 1.285-1.445l0.184-0.010z"></path>
</symbol>
<symbol id="icon-calendar" viewBox="0 0 29 32">
<path d="M24.727 2.909h-20.364c-2.41 0-4.364 1.954-4.364 4.364v20.364c0 2.41 1.954 4.364 4.364 4.364h20.364c2.41 0 4.364-1.954 4.364-4.364v-20.364c0-2.41-1.954-4.364-4.364-4.364zM4.364 5.818h20.364c0.803 0 1.455 0.651 1.455 1.455v20.364c0 0.803-0.651 1.455-1.455 1.455h-20.364c-0.803 0-1.455-0.651-1.455-1.455v-20.364c0-0.803 0.651-1.455 1.455-1.455z"></path>
<path d="M20.364 0c0.746 0 1.361 0.561 1.445 1.285l0.010 0.17v5.818c0 0.803-0.651 1.455-1.455 1.455-0.746 0-1.361-0.562-1.445-1.285l-0.010-0.17v-5.818c0-0.803 0.651-1.455 1.455-1.455z"></path>
<path d="M8.727 0c0.746 0 1.361 0.561 1.445 1.285l0.010 0.17v5.818c0 0.803-0.651 1.455-1.455 1.455-0.746 0-1.361-0.562-1.445-1.285l-0.010-0.17v-5.818c0-0.803 0.651-1.455 1.455-1.455z"></path>
<path d="M27.636 11.636c0.803 0 1.455 0.651 1.455 1.455 0 0.746-0.561 1.361-1.285 1.445l-0.17 0.010h-26.182c-0.803 0-1.455-0.651-1.455-1.455 0-0.746 0.561-1.361 1.285-1.445l0.17-0.010h26.182z"></path>
</symbol>
<symbol id="icon-lock" viewBox="0 0 29 32">
<path d="M24.727 13.091h-20.364c-2.41 0-4.364 1.954-4.364 4.364v10.182c0 2.41 1.954 4.364 4.364 4.364h20.364c2.41 0 4.364-1.954 4.364-4.364v-10.182c0-2.41-1.954-4.364-4.364-4.364zM4.364 16h20.364c0.803 0 1.455 0.651 1.455 1.455v10.182c0 0.803-0.651 1.455-1.455 1.455h-20.364c-0.803 0-1.455-0.651-1.455-1.455v-10.182c0-0.803 0.651-1.455 1.455-1.455z"></path>
<path d="M14.545 0c2.315 0 4.535 0.919 6.171 2.556 1.54 1.54 2.446 3.597 2.547 5.764l0.009 0.407v5.818c0 0.803-0.651 1.455-1.455 1.455-0.746 0-1.361-0.562-1.445-1.285l-0.010-0.17v-5.818c0-1.543-0.613-3.023-1.704-4.114s-2.571-1.704-4.114-1.704-3.023 0.613-4.114 1.704c-1.013 1.013-1.614 2.362-1.695 3.784l-0.009 0.33v5.818c0 0.803-0.651 1.455-1.455 1.455-0.746 0-1.361-0.562-1.445-1.285l-0.010-0.17v-5.818c0-2.315 0.919-4.534 2.556-6.171s3.856-2.556 6.171-2.556z"></path>
</symbol>
</defs>
</svg>
